<svg xmlns="http://www.w3.org/2000/svg" xmlns:xlink="http://www.w3.org/1999/xlink" xmlns:lucid="lucid" width="1680" height="380"><g transform="translate(1680 0)" lucid:page-tab-id="0_0"><path d="M-1660 26a6 6 0 0 1 6-6h248a6 6 0 0 1 6 6v328a6 6 0 0 1-6 6h-248a6 6 0 0 1-6-6z" stroke="#5e5e5e" stroke-width="3" fill="#fff"/><path d="M-1380 176a6 6 0 0 1 6-6h112a6 6 0 0 0 6-6v-8a2.3 2.3 0 0 1 4-1.54l28 31.08a6.67 6.67 0 0 1 0 8.92l-28 31.08a2.3 2.3 0 0 1-4-1.54v-8a6 6 0 0 0-6-6h-112a6 6 0 0 1-6-6z" stroke="#5e5e5e" stroke-width="3" fill="#ffdda6"/><path d="M-1640 206a6 6 0 0 1 6-6h208a6 6 0 0 1 6 6v108a6 6 0 0 1-6 6h-208a6 6 0 0 1-6-6z" stroke="#000" stroke-opacity="0" stroke-width="3" fill="#fff" fill-opacity="0"/><use xlink:href="#a" transform="matrix(1,0,0,1,-1635,205) translate(72.7951388888889 28.862847222222207)"/><use xlink:href="#b" transform="matrix(1,0,0,1,-1635,205) translate(14.423828125000043 65.32118055555551)"/><use xlink:href="#c" transform="matrix(1,0,0,1,-1635,205) translate(176.2380642361111 65.32118055555551)"/><use xlink:href="#d" transform="matrix(1,0,0,1,-1635,205) translate(28.779296875000043 101.77951388888883)"/><path d="M-1200 26a6 6 0 0 1 6-6h248a6 6 0 0 1 6 6v328a6 6 0 0 1-6 6h-248a6 6 0 0 1-6-6z" stroke="#5e5e5e" stroke-width="3" fill="#fff"/><path d="M-1180 205a6 6 0 0 1 6-6h208a6 6 0 0 1 6 6v110a6 6 0 0 1-6 6h-208a6 6 0 0 1-6-6z" stroke="#000" stroke-opacity="0" stroke-width="3" fill="#fff" fill-opacity="0"/><use xlink:href="#e" transform="matrix(1,0,0,1,-1175,204.00000000000003) translate(18.82161458333337 49.86284722222221)"/><use xlink:href="#f" transform="matrix(1,0,0,1,-1175,204.00000000000003) translate(129.6245659722222 49.86284722222221)"/><use xlink:href="#g" transform="matrix(1,0,0,1,-1175,204.00000000000003) translate(1.9064670138889284 86.32118055555551)"/><use xlink:href="#h" transform="matrix(1,0,0,1,-1175,204.00000000000003) translate(64.8578559027778 86.32118055555551)"/><use xlink:href="#i" transform="matrix(1,0,0,1,-1175,204.00000000000003) translate(147.92209201388886 86.32118055555551)"/><path d="M-1024.1 80h-91.8c-1.15 0-2 .9-2 2v11.6c0 .5.18 1 .57 1.4l38.23 38.5v33.1c0 .6.28 1.2.67 1.5l14.37 11.5c.3.3.77.4 1.25.4.27 0 .56-.1.85-.2.67-.3 1.05-1 1.05-1.8v-44.5l38.23-38.5c.4-.4.58-.9.58-1.4V82c0-1.1-.85-2-2-2zm-40.73 93.9l-10.34-8.3v-30.9h10.34v39.2zm1.15-43.2h-12.64l-34.8-35.1h82.23l-34.78 35.1zm37.56-39.1h-87.76V84h87.76v7.6z" stroke="#000" stroke-opacity="0" stroke-width=".29" fill="#5e5e5e"/><path d="M-1080.92 117.3l-.87-.8c-.75-.8-2-.8-2.76 0-.77.8-.77 2 0 2.8l.86.9c.38.4.86.5 1.44.5.47 0 .95-.1 1.34-.5.86-.8.86-2.1 0-2.9zM-1086.1 112.1l-13.7-13.7c-.86-.8-2.1-.8-2.87 0s-.77 2 0 2.8l13.7 13.7c.38.4.96.6 1.44.6.47 0 1.05-.2 1.43-.6.77-.8.77-2 0-2.8z" stroke="#000" stroke-opacity="0" stroke-width=".29" fill="#5e5e5e"/><path d="M-920 176a6 6 0 0 1 6-6h112a6 6 0 0 0 6-6v-8a2.3 2.3 0 0 1 4-1.54l28 31.08a6.67 6.67 0 0 1 0 8.92l-28 31.08a2.3 2.3 0 0 1-4-1.54v-8a6 6 0 0 0-6-6h-112a6 6 0 0 1-6-6z" stroke="#5e5e5e" stroke-width="3" fill="#ffdda6"/><path d="M-740 26a6 6 0 0 1 6-6h248a6 6 0 0 1 6 6v328a6 6 0 0 1-6 6h-248a6 6 0 0 1-6-6z" stroke="#5e5e5e" stroke-width="3" fill="#fff"/><path d="M-720 206a6 6 0 0 1 6-6h208a6 6 0 0 1 6 6v125.92a6 6 0 0 1-6 6h-208a6 6 0 0 1-6-6z" stroke="#000" stroke-opacity="0" stroke-width="3" fill="#fff" fill-opacity="0"/><use xlink:href="#j" transform="matrix(1,0,0,1,-715,205) translate(3.1054687500000426 24.73958333333332)"/><use xlink:href="#k" transform="matrix(1,0,0,1,-715,205) translate(97.89713541666667 24.73958333333332)"/><use xlink:href="#l" transform="matrix(1,0,0,1,-715,205) translate(36.71223958333337 55.98958333333331)"/><use xlink:href="#m" transform="matrix(1,0,0,1,-715,205) translate(93.22265625000001 55.98958333333331)"/><use xlink:href="#n" transform="matrix(1,0,0,1,-715,205) translate(22.760416666666714 87.23958333333329)"/><use xlink:href="#o" transform="matrix(1,0,0,1,-715,205) translate(122.64322916666666 87.23958333333329)"/><use xlink:href="#p" transform="matrix(1,0,0,1,-715,205) translate(53.14453125000003 118.48958333333329)"/><path d="M-460 176a6 6 0 0 1 6-6h112a6 6 0 0 0 6-6v-8a2.3 2.3 0 0 1 4-1.54l28 31.08a6.67 6.67 0 0 1 0 8.92l-28 31.08a2.3 2.3 0 0 1-4-1.54v-8a6 6 0 0 0-6-6h-112a6 6 0 0 1-6-6z" stroke="#5e5e5e" stroke-width="3" fill="#ffdda6"/><path d="M-280 26a6 6 0 0 1 6-6h248a6 6 0 0 1 6 6v328a6 6 0 0 1-6 6h-248a6 6 0 0 1-6-6z" stroke="#5e5e5e" stroke-width="3" fill="#fff"/><path d="M-260 188.08a6 6 0 0 1 6-6h208a6 6 0 0 1 6 6v143.84a6 6 0 0 1-6 6h-208a6 6 0 0 1-6-6z" stroke="#000" stroke-opacity="0" stroke-width="3" fill="#fff" fill-opacity="0"/><use xlink:href="#q" transform="matrix(1,0,0,1,-255,187.08333333333337) translate(42.89171006944448 65.3628472222222)"/><use xlink:href="#r" transform="matrix(1,0,0,1,-255,187.08333333333337) translate(58.16623263888891 101.82118055555551)"/><path d="M-583.53 105.6c0-11.5-9.37-20.9-20.9-20.9-11.47 0-20.84 9.4-20.84 20.9 0 11.5 9.37 20.9 20.83 20.9 11.54 0 20.9-9.4 20.9-20.9zm-20.9 16.9c-9.3 0-16.9-7.6-16.9-16.9 0-9.3 7.6-16.9 16.9-16.9 9.36 0 16.9 7.6 16.9 16.9 0 9.3-7.54 16.9-16.9 16.9z" stroke="#000" stroke-opacity="0" stroke-width=".3" fill="#5e5e5e"/><path d="M-622.18 87.9c.5 0 1-.1 1.34-.5 4.52-4 10.37-6.3 16.4-6.3 3.43 0 6.7.7 9.8 2 1 .5 2.16 0 2.58-1 .5-1 0-2.2-1-2.6-3.6-1.6-7.37-2.4-11.38-2.4-7.03 0-13.8 2.6-19.08 7.4-.75.7-.83 2-.08 2.8.33.4.92.6 1.42.6zM-626.95 91.5c-.92-.5-2.17-.1-2.68.9-2.1 4-3.26 8.6-3.26 13.2 0 1.1.93 2 2.02 2 1.1 0 2-.9 2-2 0-4 .93-7.9 2.77-11.4.5-.9.16-2.1-.85-2.7z" stroke="#000" stroke-opacity="0" stroke-width=".3" fill="#5e5e5e"/><path d="M-556.92 166.6l-14.9-14.9c1.76-2.5 2.85-5.5 2.85-8.8 0-5.8-3.26-10.8-8.03-13.4 5.44-10.3 8.2-18.4 8.2-23.9 0-19.6-15.98-35.6-35.64-35.6-19.58 0-35.56 16-35.56 35.6 0 19 32.63 61.8 33.97 63.6.42.5 1 .8 1.6.8.66 0 1.24-.3 1.58-.8.08 0 4.43-5.7 9.95-13.8 2.43 1.7 5.44 2.7 8.7 2.7 3.7 0 7.03-1.3 9.7-3.5l14.74 14.8c.4.4.92.6 1.42.6.5 0 1-.2 1.42-.6.75-.8.75-2 0-2.8zm-47.52-1.9c-2.76-3.8-8.95-12.3-15.06-22-10.8-17.1-16.48-29.9-16.48-37.1 0-17.4 14.14-31.6 31.54-31.6 17.48 0 31.62 14.2 31.62 31.6 0 5-2.67 12.5-7.94 22.5-1.1-.3-2.26-.4-3.44-.4-8.45 0-15.22 6.8-15.22 15.2 0 3.7 1.34 7.2 3.5 9.8-3.6 5.3-6.68 9.6-8.52 12zm20.24-10.5c-6.27 0-11.3-5.1-11.3-11.3 0-6.2 5.03-11.2 11.3-11.2 6.2 0 11.22 5 11.22 11.2 0 6.2-5.02 11.3-11.22 11.3z" stroke="#000" stroke-opacity="0" stroke-width=".3" fill="#5e5e5e"/><path d="M-1493.2 70h-59.57c-4.28 0-7.83 3.14-8.56 7.17-3.55.68-6.37 3.48-7 6.95-4.1.8-7.2 4.37-7.2 8.63v80.6c0 4.8 3.9 8.73 8.74 8.73h59.57c4.28 0 7.83-3.13 8.56-7.17 3.55-.66 6.37-3.46 7-6.94 4.1-.78 7.2-4.37 7.2-8.63v-80.6c0-4.8-3.9-8.73-8.74-8.73zm-14.03 108.6h-59.56c-2.9 0-5.27-2.34-5.27-5.26v-80.6c0-2.9 2.36-5.25 5.28-5.25H-1522.97v19.26c0 1 .8 1.8 1.72 1.8h19.3v64.78c0 2.92-2.36 5.27-5.27 5.27zm-12.3-88.65l15.12 15.13h-15.13V89.95zm21.04 81.37v-64.56-.1c0-.12-.08-.34-.08-.46 0 0 0-.1-.1-.1-.08-.23-.17-.46-.27-.57l-21.03-20.96c-.18-.22-.37-.34-.55-.34 0-.1-.1-.1-.18-.1-.1 0-.28-.12-.47-.12h-43.53c.73-2 2.64-3.46 4.92-3.46h52.55v10.53c0 .9.82 1.68 1.73 1.68h10.56v73.53c0 2.35-1.46 4.26-3.55 5.04zm-5.27-88.32l6.28 6.28h-6.27V83zm15.84 76.33c0 2.24-1.54 4.26-3.55 4.93v-73.2-.1c0-.22-.1-.34-.1-.45 0-.1-.08-.1-.08-.2-.1-.24-.18-.35-.36-.57l-12.2-12.22c-.2-.1-.37-.2-.55-.33 0 0-.1 0-.2-.1h-.44-52.28c.72-2.14 2.64-3.6 4.9-3.6h59.57c2.9 0 5.27 2.36 5.27 5.27v80.6z" stroke="#000" stroke-opacity="0" stroke-width="2.34" fill="#5e5e5e"/><path d="M-1565.06 98.02h35.06v3.48h-35.06v-3.48zM-1531.73 155.86c12.57 0 22.77-10.2 22.77-22.76 0-12.55-10.2-22.86-22.77-22.86s-22.77 10.2-22.77 22.86c0 4.37 1.28 8.4 3.37 11.88l-16.2 16.26c-2 2-2 5.38 0 7.4 1 1 2.27 1.56 3.73 1.56 1.36 0 2.73-.56 3.73-1.57l16.2-16.25c3.47 2.13 7.57 3.48 11.94 3.48zm0-42.04c10.56 0 19.2 8.64 19.2 19.28 0 10.54-8.64 19.17-19.2 19.17-4.55 0-8.74-1.57-12.02-4.15l-3-3.02c-2.65-3.37-4.3-7.5-4.3-12 0-10.64 8.66-19.28 19.32-19.28zm-30.6 52.35c-.73.67-1.82.67-2.55 0-.64-.67-.64-1.8 0-2.47l15.85-15.8c.82.9 1.64 1.68 2.55 2.46l-15.85 15.8z" stroke="#000" stroke-opacity="0" stroke-width="2.34" fill="#5e5e5e"/><path d="M-1531.73 148.8c8.65 0 15.75-7.07 15.75-15.7 0-8.74-7.1-15.8-15.75-15.8-8.74 0-15.76 7.06-15.76 15.8 0 8.63 7.03 15.7 15.77 15.7zm0-28.03c6.74 0 12.2 5.5 12.2 12.33 0 6.73-5.46 12.22-12.2 12.22-6.74 0-12.3-5.5-12.3-12.22 0-6.83 5.56-12.33 12.3-12.33zM-1565.06 105.08h7v3.48h-7v-3.48zM-1554.5 105.08h8.75v3.48h-8.75v-3.48zM-1519.53 155.86h12.3v3.47h-12.3v-3.47zM-1512.52 148.8h5.3v3.47h-5.3v-3.48zM-1549.3 162.8h21.03v3.48h-21.04v-3.47zM-1524.72 162.8h17.5v3.48h-17.5v-3.47zM-1565.06 112.03h8.83v3.48h-8.83v-3.47z" stroke="#000" stroke-opacity="0" stroke-width="2.34" fill="#5e5e5e"/><path d="M-203.13 74.67h106.26c1.1 0 1.87-.77 1.87-1.76 0-1.1-.77-1.86-1.87-1.86h-106.26c-1.1 0-1.87.77-1.87 1.87 0 1 .77 1.77 1.87 1.77zM-96.87 177.4h-3.63V93.06h-18.37v84.38h-1.76V131.56H-139v45.88h-1.87v-65.99h-18.26v66.01H-161V122.42h-18.37V177.42h-1.76V140.7h-18.37v36.75h-3.63c-1.1 0-1.87.78-1.87 1.77 0 1.1.77 1.87 1.87 1.87H-96.87c1.1 0 1.87-.77 1.87-1.87 0-1-.77-1.76-1.87-1.76zm-99-33h11v5.5h-11v-5.5zm0 33v-23.86h11v23.87h-11zm20.24-51.36h11v23.87h-11v-23.86zm0 51.37v-23.86h11v23.87h-11zm20.13-62.36h11v34.87h-11v-34.86zm0 62.37v-23.86h11v23.87h-11zm20.13-42.23h11v14.74h-11v-14.73zm0 42.24v-23.86h11v23.87h-11zm20.24-80.73h11v53.24h-11V96.68zm0 80.74v-23.86h11v23.87h-11zM-190.37 94.9h14.74c1 0 1.76-.87 1.76-1.86 0-1-.77-1.87-1.76-1.87h-14.74c-1 0-1.76.88-1.76 1.87 0 1 .77 1.87 1.76 1.87zM-200.82 91.72c-.33.33-.55.77-.55 1.32 0 .44.22 1 .55 1.32.33.33.88.55 1.32.55.44 0 1-.2 1.32-.54.33-.33.55-.88.55-1.32 0-.55-.22-1-.55-1.32-.66-.66-1.98-.66-2.64 0zM-192.13 83.9c0-1.1-.88-1.86-1.87-1.86h-5.5c-1 0-1.87.77-1.87 1.87 0 1 .88 1.77 1.87 1.77h5.5c1 0 1.87-.77 1.87-1.76zM-175.63 82.04h-3.74c-1 0-1.76.77-1.76 1.87 0 1 .77 1.77 1.76 1.77h3.74c1 0 1.76-.77 1.76-1.76 0-1.1-.77-1.86-1.76-1.86zM-185.3 85.23c.32-.44.43-.88.43-1.32 0-.54-.1-.98-.44-1.3-.78-.67-2-.67-2.65 0-.33.32-.55.76-.55 1.3 0 .45.22.9.55 1.33.33.33.77.44 1.32.44.44 0 .88-.1 1.32-.44z" stroke="#000" stroke-opacity="0" stroke-width="2.5" fill="#5e5e5e"/><defs><path fill="#5e5e5e" d="M1222-777c17 480-206 763-650 777H169v-1456h411c408 9 627 269 642 679zm-190 4c3-312-149-522-447-525H361v1141h202c308 0 473-209 469-531v-85" id="s"/><path fill="#5e5e5e" d="M561-1102c238-4 403 126 403 351v498c0 99 13 178 38 237V0H808c-11-21-19-59-26-114C696-25 593 20 474 20c-199 0-368-130-365-320 4-251 214-359 490-356h180v-85c-1-135-86-212-229-212-115 0-232 67-233 171H131c20-205 206-316 430-320zM294-326c0 117 90 185 207 185 122 0 239-75 278-162v-222H634c-227 0-340 66-340 199" id="t"/><path fill="#5e5e5e" d="M456 20C285 20 205-92 206-268v-671H9v-143h197v-262h185v262h202v143H391v671c-9 125 92 149 207 118V0c-49 13-96 20-142 20" id="u"/><g id="a"><use transform="matrix(0.015190972222222215,0,0,0.015190972222222215,0,0)" xlink:href="#s"/><use transform="matrix(0.015190972222222215,0,0,0.015190972222222215,20.401475694444436,0)" xlink:href="#t"/><use transform="matrix(0.015190972222222215,0,0,0.015190972222222215,37.324218749999986,0)" xlink:href="#u"/><use transform="matrix(0.015190972222222215,0,0,0.015190972222222215,47.48697916666665,0)" xlink:href="#t"/></g><path fill="#5e5e5e" d="M599-131c141 0 220-65 285-146l113 88C906-50 770 20 589 20 281 21 93-214 93-545c0-223 93-397 233-485 74-48 154-72 240-72 300 2 449 218 445 537v77H278c0 197 129 357 321 357zm227-509c-3-180-88-310-260-310-170 0-264 140-282 310h542" id="v"/><path fill="#5e5e5e" d="M503-687l240-395h216L605-547 970 0H756L506-405 256 0H41l365-547-354-535h214" id="w"/><path fill="#5e5e5e" d="M632-1102c291 0 422 251 422 573 0 297-141 548-419 549-131 0-235-42-310-125v521H140v-1498h169l9 120c75-93 180-140 314-140zm-53 971c207 0 290-180 290-419 0-218-92-395-292-395-112 0-196 50-252 149v517c55 99 140 148 254 148" id="x"/><path fill="#5e5e5e" d="M341 0H156v-1536h185V0" id="y"/><path fill="#5e5e5e" d="M584 20C278 26 81-227 91-551c10-320 175-545 491-551 308-5 503 247 494 573-9 322-175 543-492 549zm-2-970c-208 0-305 185-305 421 0 216 106 398 307 398 211 0 307-186 307-420 0-214-109-399-309-399" id="z"/><path fill="#5e5e5e" d="M663-916c-163-27-288 18-338 148V0H140v-1082h180l3 125c61-97 147-145 258-145 36 0 63 5 82 14v172" id="A"/><path fill="#5e5e5e" d="M341 0H156v-1082h185V0zm-91-1264c-68 0-108-42-109-105 0-62 41-107 109-107s110 44 110 107-42 105-110 105" id="B"/><path fill="#5e5e5e" d="M589-945c-131 0-219 81-264 174V0H140v-1082h175l6 136c83-104 191-156 324-156 229 0 346 129 346 387V0H806v-716c-2-153-65-229-217-229" id="C"/><g id="b"><use transform="matrix(0.015190972222222215,0,0,0.015190972222222215,0,0)" xlink:href="#v"/><use transform="matrix(0.015190972222222215,0,0,0.015190972222222215,16.482204861111104,0)" xlink:href="#w"/><use transform="matrix(0.015190972222222215,0,0,0.015190972222222215,31.90104166666665,0)" xlink:href="#x"/><use transform="matrix(0.015190972222222215,0,0,0.015190972222222215,49.35546874999997,0)" xlink:href="#y"/><use transform="matrix(0.015190972222222215,0,0,0.015190972222222215,56.905381944444414,0)" xlink:href="#z"/><use transform="matrix(0.015190972222222215,0,0,0.015190972222222215,74.64843749999996,0)" xlink:href="#A"/><use transform="matrix(0.015190972222222215,0,0,0.015190972222222215,84.56814236111107,0)" xlink:href="#t"/><use transform="matrix(0.015190972222222215,0,0,0.015190972222222215,101.49088541666661,0)" xlink:href="#u"/><use transform="matrix(0.015190972222222215,0,0,0.015190972222222215,111.65364583333327,0)" xlink:href="#B"/><use transform="matrix(0.015190972222222215,0,0,0.015190972222222215,119.20355902777771,0)" xlink:href="#z"/><use transform="matrix(0.015190972222222215,0,0,0.015190972222222215,136.94661458333326,0)" xlink:href="#C"/></g><path fill="#5e5e5e" d="M572 20C306 25 99-136 101-391c0-70 20-134 59-193s113-127 223-205c-65-79-108-142-130-190s-33-96-33-143c-3-220 144-354 364-354 187 0 349 127 346 308-3 212-172 290-307 398l324 387c45-87 68-183 68-289h167c0 170-41 311-123 423L1267 0h-222l-97-115C862-36 726 17 572 20zM286-391c0 162 118 260 286 260 98 0 188-37 269-112L486-668c-110 72-200 183-200 277zm297-933c-109 0-180 87-178 196 0 64 39 144 118 240 93-79 236-119 236-280 0-91-82-156-176-156" id="D"/><use transform="matrix(0.015190972222222215,0,0,0.015190972222222215,0,0)" xlink:href="#D" id="c"/><path fill="#5e5e5e" d="M277-555c0 244 77 420 297 424 127 2 249-93 255-210h175C980-127 805 20 574 20 258 20 81-222 92-562c11-319 164-533 481-540 237-5 426 165 431 392H829c-7-133-115-242-256-240-209 4-296 166-296 395" id="E"/><path fill="#5e5e5e" d="M538-131c121 0 232-49 232-156 0-50-20-88-56-117-73-60-334-92-420-143-92-55-162-110-162-238 0-190 192-317 400-317 223 0 414 129 413 338H759c0-108-110-186-227-186-119 0-215 53-215 159 0 45 18 78 53 101 76 52 331 90 416 139 98 57 169 115 169 251C955-92 760 20 538 20c-176 0-314-68-386-174-38-55-57-115-57-179h185c6 129 116 202 258 202" id="F"/><path fill="#5e5e5e" d="M521 20C240 20 96-239 96-550c0-303 147-552 427-552 132 0 235 47 309 140l9-120h169V-26c4 277-183 454-459 452-165-1-334-81-400-187l96-111c79 98 176 147 291 147 180 1 288-109 286-290v-93C750-23 649 20 521 20zm48-965c-209 0-287 178-287 416 0 217 86 392 285 392 117 0 202-53 257-159v-494c-57-103-142-155-255-155" id="G"/><g id="d"><use transform="matrix(0.015190972222222215,0,0,0.015190972222222215,0,0)" xlink:href="#x"/><use transform="matrix(0.015190972222222215,0,0,0.015190972222222215,17.454427083333325,0)" xlink:href="#A"/><use transform="matrix(0.015190972222222215,0,0,0.015190972222222215,27.67795138888888,0)" xlink:href="#z"/><use transform="matrix(0.015190972222222215,0,0,0.015190972222222215,45.42100694444443,0)" xlink:href="#E"/><use transform="matrix(0.015190972222222215,0,0,0.015190972222222215,61.70572916666664,0)" xlink:href="#v"/><use transform="matrix(0.015190972222222215,0,0,0.015190972222222215,78.18793402777774,0)" xlink:href="#F"/><use transform="matrix(0.015190972222222215,0,0,0.015190972222222215,94.2296006944444,0)" xlink:href="#F"/><use transform="matrix(0.015190972222222215,0,0,0.015190972222222215,110.27126736111106,0)" xlink:href="#B"/><use transform="matrix(0.015190972222222215,0,0,0.015190972222222215,117.8211805555555,0)" xlink:href="#C"/><use transform="matrix(0.015190972222222215,0,0,0.015190972222222215,134.9869791666666,0)" xlink:href="#G"/></g><path fill="#5e5e5e" d="M1161-1018c0 201-122 330-278 388l342 618V0h-206L703-589H361V0H168v-1456h482c310-2 511 139 511 438zm-193 0c0-187-120-280-313-280H361v552h295c179 3 313-101 312-272" id="H"/><path fill="#5e5e5e" d="M520 20C244 20 95-247 95-550c0-298 151-550 427-552 127 0 227 43 301 130v-564h185V0H838l-9-116C755-25 652 20 520 20zm48-965c-210 0-288 177-288 416 0 218 87 392 286 392 117 0 203-53 257-158v-497c-55-102-140-153-255-153" id="I"/><path fill="#5e5e5e" d="M491 20c-241-1-355-148-355-398v-704h185v699c0 164 67 246 200 246 141 0 235-53 282-158v-787h185V0H812l-4-107C736-22 630 20 491 20" id="J"/><g id="e"><use transform="matrix(0.015190972222222215,0,0,0.015190972222222215,0,0)" xlink:href="#H"/><use transform="matrix(0.015190972222222215,0,0,0.015190972222222215,19.155815972222214,0)" xlink:href="#v"/><use transform="matrix(0.015190972222222215,0,0,0.015190972222222215,35.638020833333314,0)" xlink:href="#I"/><use transform="matrix(0.015190972222222215,0,0,0.015190972222222215,53.18359374999997,0)" xlink:href="#J"/><use transform="matrix(0.015190972222222215,0,0,0.015190972222222215,70.33420138888886,0)" xlink:href="#E"/><use transform="matrix(0.015190972222222215,0,0,0.015190972222222215,86.61892361111107,0)" xlink:href="#v"/></g><g id="f"><use transform="matrix(0.015190972222222215,0,0,0.015190972222222215,0,0)" xlink:href="#I"/><use transform="matrix(0.015190972222222215,0,0,0.015190972222222215,17.545572916666657,0)" xlink:href="#t"/><use transform="matrix(0.015190972222222215,0,0,0.015190972222222215,34.4683159722222,0)" xlink:href="#u"/><use transform="matrix(0.015190972222222215,0,0,0.015190972222222215,44.631076388888864,0)" xlink:href="#t"/></g><path fill="#5e5e5e" d="M314-151h633V0H88v-136l597-793H97v-153h820v131" id="K"/><g id="g"><use transform="matrix(0.015190972222222215,0,0,0.015190972222222215,0,0)" xlink:href="#F"/><use transform="matrix(0.015190972222222215,0,0,0.015190972222222215,16.04166666666666,0)" xlink:href="#B"/><use transform="matrix(0.015190972222222215,0,0,0.015190972222222215,23.5915798611111,0)" xlink:href="#K"/><use transform="matrix(0.015190972222222215,0,0,0.015190972222222215,38.76736111111109,0)" xlink:href="#v"/></g><g id="h"><use transform="matrix(0.015190972222222215,0,0,0.015190972222222215,0,0)" xlink:href="#J"/><use transform="matrix(0.015190972222222215,0,0,0.015190972222222215,17.150607638888882,0)" xlink:href="#F"/><use transform="matrix(0.015190972222222215,0,0,0.015190972222222215,33.19227430555554,0)" xlink:href="#B"/><use transform="matrix(0.015190972222222215,0,0,0.015190972222222215,40.742187499999986,0)" xlink:href="#C"/><use transform="matrix(0.015190972222222215,0,0,0.015190972222222215,57.907986111111086,0)" xlink:href="#G"/></g><path fill="#5e5e5e" d="M1216-1011c-1 297-202 441-512 441H361V0H169v-1456h537c297-6 510 164 510 445zm-192 2c1-178-126-288-307-289H361v571h345c196 1 318-92 318-282" id="L"/><path fill="#5e5e5e" d="M688-137c238 0 323-102 359-325h193c-32 297-228 482-552 482-361 0-569-299-569-680 0-197 8-360 73-497 88-186 257-317 513-319 316-2 509 195 535 488h-193c-31-212-118-330-342-330-272 0-397 224-393 523v141c-3 282 115 517 376 517" id="M"/><path fill="#5e5e5e" d="M973-380H363L226 0H28l556-1456h168L1309 0h-197zM421-538h495l-248-681" id="N"/><g id="i"><use transform="matrix(0.015190972222222215,0,0,0.015190972222222215,0,0)" xlink:href="#L"/><use transform="matrix(0.015190972222222215,0,0,0.015190972222222215,19.626736111111104,0)" xlink:href="#M"/><use transform="matrix(0.015190972222222215,0,0,0.015190972222222215,39.876302083333314,0)" xlink:href="#N"/></g><path fill="#5e5e5e" d="M375 0H183v-1456h192V0" id="O"/><path fill="#5e5e5e" d="M704-1390c-164-38-297 28-288 194v114h231v143H416V0H231v-939H60v-143h171v-111c-12-274 208-416 483-347" id="P"/><path fill="#5e5e5e" d="M494-271l252-811h198L509 167C425 381 299 474 84 421V271c167 16 242-37 283-173l41-110L22-1082h202" id="Q"/><g id="j"><use transform="matrix(0.013020833333333327,0,0,0.013020833333333327,0,0)" xlink:href="#O"/><use transform="matrix(0.013020833333333327,0,0,0.013020833333333327,7.252604166666663,0)" xlink:href="#I"/><use transform="matrix(0.013020833333333327,0,0,0.013020833333333327,22.291666666666657,0)" xlink:href="#v"/><use transform="matrix(0.013020833333333327,0,0,0.013020833333333327,36.419270833333314,0)" xlink:href="#C"/><use transform="matrix(0.013020833333333327,0,0,0.013020833333333327,51.13281249999997,0)" xlink:href="#u"/><use transform="matrix(0.013020833333333327,0,0,0.013020833333333327,59.84374999999997,0)" xlink:href="#B"/><use transform="matrix(0.013020833333333327,0,0,0.013020833333333327,66.31510416666663,0)" xlink:href="#P"/><use transform="matrix(0.013020833333333327,0,0,0.013020833333333327,75.57291666666663,0)" xlink:href="#Q"/></g><g id="k"><use transform="matrix(0.013020833333333327,0,0,0.013020833333333327,0,0)" xlink:href="#y"/><use transform="matrix(0.013020833333333327,0,0,0.013020833333333327,6.471354166666663,0)" xlink:href="#z"/><use transform="matrix(0.013020833333333327,0,0,0.013020833333333327,21.67968749999999,0)" xlink:href="#E"/><use transform="matrix(0.013020833333333327,0,0,0.013020833333333327,35.638020833333314,0)" xlink:href="#t"/><use transform="matrix(0.013020833333333327,0,0,0.013020833333333327,50.14322916666664,0)" xlink:href="#u"/><use transform="matrix(0.013020833333333327,0,0,0.013020833333333327,58.854166666666636,0)" xlink:href="#B"/><use transform="matrix(0.013020833333333327,0,0,0.013020833333333327,65.3255208333333,0)" xlink:href="#z"/><use transform="matrix(0.013020833333333327,0,0,0.013020833333333327,80.53385416666663,0)" xlink:href="#C"/><use transform="matrix(0.013020833333333327,0,0,0.013020833333333327,95.24739583333329,0)" xlink:href="#F"/></g><path fill="#5e5e5e" d="M1098-255l208-827h185L1176 0h-150L763-820 507 0H357L43-1082h184l213 810 252-810h149" id="R"/><path fill="#5e5e5e" d="M589-945c-131 0-219 81-264 174V0H140v-1536h185v585c82-101 189-151 320-151 229 0 346 129 346 387V0H806v-716c-2-153-65-229-217-229" id="S"/><g id="l"><use transform="matrix(0.013020833333333327,0,0,0.013020833333333327,0,0)" xlink:href="#R"/><use transform="matrix(0.013020833333333327,0,0,0.013020833333333327,20.03906249999999,0)" xlink:href="#B"/><use transform="matrix(0.013020833333333327,0,0,0.013020833333333327,26.510416666666654,0)" xlink:href="#u"/><use transform="matrix(0.013020833333333327,0,0,0.013020833333333327,35.22135416666665,0)" xlink:href="#S"/></g><path fill="#5e5e5e" d="M1240-945c-141 0-250 95-250 227V0H804v-709c0-157-77-236-231-236-121 0-204 52-249 155V0H139v-1082h175l5 120c79-93 186-140 321-140 151 0 254 58 309 174 69-98 181-174 345-174 237 0 362 126 362 377V0h-185v-714c-2-159-67-231-231-231" id="T"/><g id="m"><use transform="matrix(0.013020833333333327,0,0,0.013020833333333327,0,0)" xlink:href="#F"/><use transform="matrix(0.013020833333333327,0,0,0.013020833333333327,13.749999999999993,0)" xlink:href="#B"/><use transform="matrix(0.013020833333333327,0,0,0.013020833333333327,20.221354166666657,0)" xlink:href="#T"/><use transform="matrix(0.013020833333333327,0,0,0.013020833333333327,43.59374999999998,0)" xlink:href="#B"/><use transform="matrix(0.013020833333333327,0,0,0.013020833333333327,50.06510416666664,0)" xlink:href="#y"/><use transform="matrix(0.013020833333333327,0,0,0.013020833333333327,56.53645833333331,0)" xlink:href="#t"/><use transform="matrix(0.013020833333333327,0,0,0.013020833333333327,71.04166666666663,0)" xlink:href="#A"/></g><g id="n"><use transform="matrix(0.013020833333333327,0,0,0.013020833333333327,0,0)" xlink:href="#E"/><use transform="matrix(0.013020833333333327,0,0,0.013020833333333327,13.958333333333327,0)" xlink:href="#A"/><use transform="matrix(0.013020833333333327,0,0,0.013020833333333327,22.46093749999999,0)" xlink:href="#t"/><use transform="matrix(0.013020833333333327,0,0,0.013020833333333327,36.966145833333314,0)" xlink:href="#F"/><use transform="matrix(0.013020833333333327,0,0,0.013020833333333327,50.71614583333331,0)" xlink:href="#S"/><use transform="matrix(0.013020833333333327,0,0,0.013020833333333327,65.4036458333333,0)" xlink:href="#v"/><use transform="matrix(0.013020833333333327,0,0,0.013020833333333327,79.53124999999996,0)" xlink:href="#F"/></g><g id="o"><use transform="matrix(0.013020833333333327,0,0,0.013020833333333327,0,0)" xlink:href="#J"/><use transform="matrix(0.013020833333333327,0,0,0.013020833333333327,14.700520833333327,0)" xlink:href="#F"/><use transform="matrix(0.013020833333333327,0,0,0.013020833333333327,28.450520833333318,0)" xlink:href="#B"/><use transform="matrix(0.013020833333333327,0,0,0.013020833333333327,34.921874999999986,0)" xlink:href="#C"/><use transform="matrix(0.013020833333333327,0,0,0.013020833333333327,49.63541666666664,0)" xlink:href="#G"/></g><path fill="#5e5e5e" d="M539-677L361-492V0H169v-1456h192v720l647-720h232L667-813 1285 0h-230" id="U"/><path fill="#5e5e5e" d="M525-543H37v-151h488v151" id="V"/><g id="p"><use transform="matrix(0.013020833333333327,0,0,0.013020833333333327,0,0)" xlink:href="#U"/><use transform="matrix(0.013020833333333327,0,0,0.013020833333333327,15.885416666666663,0)" xlink:href="#V"/><use transform="matrix(0.013020833333333327,0,0,0.013020833333333327,23.24218749999999,0)" xlink:href="#T"/><use transform="matrix(0.013020833333333327,0,0,0.013020833333333327,46.614583333333314,0)" xlink:href="#v"/><use transform="matrix(0.013020833333333327,0,0,0.013020833333333327,60.74218749999997,0)" xlink:href="#t"/><use transform="matrix(0.013020833333333327,0,0,0.013020833333333327,75.2473958333333,0)" xlink:href="#C"/><use transform="matrix(0.013020833333333327,0,0,0.013020833333333327,89.96093749999996,0)" xlink:href="#F"/></g><path fill="#5e5e5e" d="M651-255l416-1201h210L737 0H567L28-1456h209" id="W"/><g id="q"><use transform="matrix(0.015190972222222215,0,0,0.015190972222222215,0,0)" xlink:href="#W"/><use transform="matrix(0.015190972222222215,0,0,0.015190972222222215,19.793836805555546,0)" xlink:href="#B"/><use transform="matrix(0.015190972222222215,0,0,0.015190972222222215,27.343749999999986,0)" xlink:href="#F"/><use transform="matrix(0.015190972222222215,0,0,0.015190972222222215,43.38541666666664,0)" xlink:href="#J"/><use transform="matrix(0.015190972222222215,0,0,0.015190972222222215,60.53602430555553,0)" xlink:href="#t"/><use transform="matrix(0.015190972222222215,0,0,0.015190972222222215,77.45876736111107,0)" xlink:href="#y"/><use transform="matrix(0.015190972222222215,0,0,0.015190972222222215,85.00868055555551,0)" xlink:href="#B"/><use transform="matrix(0.015190972222222215,0,0,0.015190972222222215,92.55859374999996,0)" xlink:href="#K"/><use transform="matrix(0.015190972222222215,0,0,0.015190972222222215,107.73437499999994,0)" xlink:href="#v"/></g><g id="r"><use transform="matrix(0.015190972222222215,0,0,0.015190972222222215,0,0)" xlink:href="#A"/><use transform="matrix(0.015190972222222215,0,0,0.015190972222222215,10.238715277777773,0)" xlink:href="#v"/><use transform="matrix(0.015190972222222215,0,0,0.015190972222222215,26.72092013888888,0)" xlink:href="#F"/><use transform="matrix(0.015190972222222215,0,0,0.015190972222222215,42.76258680555554,0)" xlink:href="#J"/><use transform="matrix(0.015190972222222215,0,0,0.015190972222222215,59.91319444444443,0)" xlink:href="#y"/><use transform="matrix(0.015190972222222215,0,0,0.015190972222222215,67.46310763888887,0)" xlink:href="#u"/><use transform="matrix(0.015190972222222215,0,0,0.015190972222222215,77.62586805555553,0)" xlink:href="#F"/></g></defs></g></svg>