<svg xmlns="http://www.w3.org/2000/svg" xmlns:xlink="http://www.w3.org/1999/xlink" xmlns:lucid="lucid" width="702" height="744"><g transform="translate(1626 -620)" lucid:page-tab-id="0_0"><path d="M-1602.4 926a6 6 0 0 1 6-6h290.4a6 6 0 0 1 6 6v188a6 6 0 0 1-6 6h-290.4a6 6 0 0 1-6-6z" stroke="#5e5e5e" stroke-width="3" fill="#fff"/><path d="M-1603.93 643.33a6 6 0 0 1 6-6h290.4a6 6 0 0 1 6 6V854a6 6 0 0 1-6 6h-290.4a6 6 0 0 1-6-6z" stroke="#5e5e5e" stroke-width="3" fill="#ffdda6"/><path d="M-1603.93 643.33a6 6 0 0 1 6-6h290.4a6 6 0 0 1 6 6V694a6 6 0 0 1-6 6h-290.4a6 6 0 0 1-6-6z" stroke="#000" stroke-opacity="0" stroke-width="3" fill-opacity="0"/><use xlink:href="#a" transform="matrix(1,0,0,1,-1598.925285100059,642.3333333333334) translate(101.39908854166671 33.86631944444443)"/><use xlink:href="#b" transform="matrix(1,0,0,1,-1598.925285100059,642.3333333333334) translate(178.8513454861111 33.86631944444443)"/><path d="M-1200 874.67a6 6 0 0 1 6-6h248a6 6 0 0 1 6 6v250.66a6 6 0 0 1-6 6h-248a6 6 0 0 1-6-6z" stroke="#5e5e5e" stroke-width="3" fill="#ffdda6"/><path d="M-1200 957.33a6 6 0 0 1 6-6h248a6 6 0 0 1 6 6v168a6 6 0 0 1-6 6h-248a6 6 0 0 1-6-6z" stroke="#5e5e5e" stroke-width="3" fill="#fff"/><path d="M-1181.48 884.67a6 6 0 0 1 6-6h218a6 6 0 0 1 6 6v48a6 6 0 0 1-6 6h-218a6 6 0 0 1-6-6z" stroke="#000" stroke-opacity="0" stroke-width="3" fill-opacity="0"/><use xlink:href="#c" transform="matrix(1,0,0,1,-1176.4756783266516,883.6666666666667) translate(5.035807291666771 20.61631944444443)"/><use xlink:href="#d" transform="matrix(1,0,0,1,-1176.4756783266516,883.6666666666667) translate(110.244140625 20.61631944444443)"/><use xlink:href="#e" transform="matrix(1,0,0,1,-1176.4756783266516,883.6666666666667) translate(58.77387152777782 46.65798611111107)"/><use xlink:href="#f" transform="matrix(1,0,0,1,-1176.4756783266516,883.6666666666667) translate(82.64539930555557 46.65798611111107)"/><path d="M-1603.93 706a6 6 0 0 1 6-6h290.4a6 6 0 0 1 6 6v148a6 6 0 0 1-6 6h-290.4a6 6 0 0 1-6-6z" stroke="#5e5e5e" stroke-width="3" fill="#fff"/><path d="M-1603.93 719.67a6 6 0 0 1 6-6h290.4a6 6 0 0 1 6 6v126a6 6 0 0 1-6 6h-290.4a6 6 0 0 1-6-6z" stroke="#000" stroke-opacity="0" stroke-width="3" fill="#fff" fill-opacity="0"/><use xlink:href="#g" transform="matrix(1,0,0,1,-1598.925285100059,718.6666666666665) translate(49.93315972222223 20.493055555555557)"/><use xlink:href="#h" transform="matrix(1,0,0,1,-1598.925285100059,718.6666666666665) translate(205.48871527777777 20.493055555555557)"/><use xlink:href="#i" transform="matrix(1,0,0,1,-1598.925285100059,718.6666666666665) translate(20.367187499999986 45.32638888888889)"/><use xlink:href="#j" transform="matrix(1,0,0,1,-1598.925285100059,718.6666666666665) translate(24.768229166666654 45.32638888888889)"/><use xlink:href="#h" transform="matrix(1,0,0,1,-1598.925285100059,718.6666666666665) translate(235.0546875 45.32638888888889)"/><use xlink:href="#i" transform="matrix(1,0,0,1,-1598.925285100059,718.6666666666665) translate(42.576388888888886 70.15972222222223)"/><use xlink:href="#k" transform="matrix(1,0,0,1,-1598.925285100059,718.6666666666665) translate(46.97743055555555 70.15972222222223)"/><use xlink:href="#l" transform="matrix(1,0,0,1,-1598.925285100059,718.6666666666665) translate(212.69791666666669 70.15972222222223)"/><use xlink:href="#i" transform="matrix(1,0,0,1,-1598.925285100059,718.6666666666665) translate(12.025173611111114 94.99305555555556)"/><use xlink:href="#m" transform="matrix(1,0,0,1,-1598.925285100059,718.6666666666665) translate(16.426215277777782 94.99305555555556)"/><use xlink:href="#l" transform="matrix(1,0,0,1,-1598.925285100059,718.6666666666665) translate(243.24913194444446 94.99305555555556)"/><use xlink:href="#i" transform="matrix(1,0,0,1,-1598.925285100059,718.6666666666665) translate(49.88541666666667 119.8263888888889)"/><use xlink:href="#n" transform="matrix(1,0,0,1,-1598.925285100059,718.6666666666665) translate(54.286458333333336 119.8263888888889)"/><use xlink:href="#h" transform="matrix(1,0,0,1,-1598.925285100059,718.6666666666665) translate(205.53645833333331 119.8263888888889)"/><use xlink:href="#o" transform="matrix(1,0,0,1,-1598.925285100059,718.6666666666665) translate(146.5 144.65972222222223)"/><path d="M-1200 957.33a6 6 0 0 1 6-6h248a6 6 0 0 1 6 6v168a6 6 0 0 1-6 6h-248a6 6 0 0 1-6-6z" stroke="#000" stroke-opacity="0" stroke-width="3" fill-opacity="0"/><g><use xlink:href="#p" transform="matrix(1,0,0,1,-1195,956.333333333333) translate(21.515625 29.972671555555557)"/><use xlink:href="#q" transform="matrix(1,0,0,1,-1195,956.333333333333) translate(83.40798611111111 29.972671555555557)"/><use xlink:href="#r" transform="matrix(1,0,0,1,-1195,956.333333333333) translate(137.62673611111111 29.972671555555557)"/><use xlink:href="#s" transform="matrix(1,0,0,1,-1195,956.333333333333) translate(180.59548611111111 29.972671555555557)"/><use xlink:href="#t" transform="matrix(1,0,0,1,-1195,956.333333333333) translate(55.994791666666686 53.80600488888888)"/><use xlink:href="#u" transform="matrix(1,0,0,1,-1195,956.333333333333) translate(119.99652777777779 53.80600488888888)"/><use xlink:href="#v" transform="matrix(1,0,0,1,-1195,956.333333333333) translate(156.59375 53.80600488888888)"/><use xlink:href="#w" transform="matrix(1,0,0,1,-1195,956.333333333333) translate(50.27430555555557 77.63933822222221)"/><use xlink:href="#x" transform="matrix(1,0,0,1,-1195,956.333333333333) translate(85.10069444444446 77.63933822222221)"/><use xlink:href="#y" transform="matrix(1,0,0,1,-1195,956.333333333333) translate(152.56597222222223 77.63933822222221)"/><use xlink:href="#z" transform="matrix(1,0,0,1,-1195,956.333333333333) translate(35.74739583333334 101.47267155555555)"/><use xlink:href="#A" transform="matrix(1,0,0,1,-1195,956.333333333333) translate(84.00260416666667 101.47267155555555)"/><use xlink:href="#B" transform="matrix(1,0,0,1,-1195,956.333333333333) translate(117.90885416666666 101.47267155555555)"/><use xlink:href="#C" transform="matrix(1,0,0,1,-1195,956.333333333333) translate(151.77170138888886 101.47267155555555)"/><use xlink:href="#D" transform="matrix(1,0,0,1,-1195,956.333333333333) translate(22.81770833333337 125.30600488888888)"/><use xlink:href="#E" transform="matrix(1,0,0,1,-1195,956.333333333333) translate(162.36631944444443 125.30600488888888)"/><use xlink:href="#F" transform="matrix(1,0,0,1,-1195,956.333333333333) translate(40.44791666666667 149.1393382222222)"/><use xlink:href="#G" transform="matrix(1,0,0,1,-1195,956.333333333333) translate(73.46875 149.1393382222222)"/><use xlink:href="#H" transform="matrix(1,0,0,1,-1195,956.333333333333) translate(93.34722222222223 149.1393382222222)"/><use xlink:href="#I" transform="matrix(1,0,0,1,-1195,956.333333333333) translate(117.22743055555556 149.1393382222222)"/><use xlink:href="#J" transform="matrix(1,0,0,1,-1195,956.333333333333) translate(125.5 169.9726715555555)"/></g><path d="M-1602.4 886a6 6 0 0 1 6-6h290.4a6 6 0 0 1 6 6v50.67a6 6 0 0 1-6 6h-290.4a6 6 0 0 1-6-6z" stroke="#5e5e5e" stroke-width="3" fill="#ffdda6"/><path d="M-1603.93 886a6 6 0 0 1 6-6H-1306a6 6 0 0 1 6 6v50.67a6 6 0 0 1-6 6h-291.93a6 6 0 0 1-6-6z" stroke="#000" stroke-opacity="0" stroke-width="3" fill-opacity="0"/><g><use xlink:href="#a" transform="matrix(1,0,0,1,-1598.925285100059,885) translate(101.89908854166671 33.86631944444443)"/><use xlink:href="#K" transform="matrix(1,0,0,1,-1598.925285100059,885) translate(179.3513454861111 33.86631944444443)"/></g><path d="M-1600 956a6 6 0 0 1 6-6h290.4a6 6 0 0 1 6 6v158a6 6 0 0 1-6 6H-1594a6 6 0 0 1-6-6z" stroke="#000" stroke-opacity="0" stroke-width="3" fill="#fff" fill-opacity="0"/><g><use xlink:href="#L" transform="matrix(1,0,0,1,-1595,955.0000000000003) translate(32.650173611111114 20.493055555555557)"/><use xlink:href="#M" transform="matrix(1,0,0,1,-1595,955.0000000000003) translate(181.5824652777778 20.493055555555557)"/><use xlink:href="#l" transform="matrix(1,0,0,1,-1595,955.0000000000003) translate(222.62413194444446 20.493055555555557)"/><use xlink:href="#N" transform="matrix(1,0,0,1,-1595,955.0000000000003) translate(61.10069444444444 45.32638888888889)"/><use xlink:href="#h" transform="matrix(1,0,0,1,-1595,955.0000000000003) translate(194.32118055555554 45.32638888888889)"/><use xlink:href="#O" transform="matrix(1,0,0,1,-1595,955.0000000000003) translate(56.31336805555556 70.15972222222223)"/><use xlink:href="#h" transform="matrix(1,0,0,1,-1595,955.0000000000003) translate(199.10850694444446 70.15972222222223)"/><use xlink:href="#P" transform="matrix(1,0,0,1,-1595,955.0000000000003) translate(44.59461805555554 94.99305555555556)"/><use xlink:href="#l" transform="matrix(1,0,0,1,-1595,955.0000000000003) translate(210.6796875 94.99305555555556)"/><use xlink:href="#Q" transform="matrix(1,0,0,1,-1595,955.0000000000003) translate(19.31684027777777 119.8263888888889)"/><use xlink:href="#l" transform="matrix(1,0,0,1,-1595,955.0000000000003) translate(235.95746527777777 119.8263888888889)"/><use xlink:href="#R" transform="matrix(1,0,0,1,-1595,955.0000000000003) translate(43.34461805555556 144.65972222222223)"/><use xlink:href="#h" transform="matrix(1,0,0,1,-1595,955.0000000000003) translate(212.07725694444446 144.65972222222223)"/><use xlink:href="#o" transform="matrix(1,0,0,1,-1595,955.0000000000003) translate(146.5 169.4930555555556)"/></g><path d="M-1602.82 1186a6 6 0 0 1 6-6h290.4a6 6 0 0 1 6 6v148a6 6 0 0 1-6 6h-290.4a6 6 0 0 1-6-6z" stroke="#5e5e5e" stroke-width="3" fill="#fff"/><path d="M-1602.82 1146a6 6 0 0 1 6-6h290.4a6 6 0 0 1 6 6v50.67a6 6 0 0 1-6 6h-290.4a6 6 0 0 1-6-6z" stroke="#5e5e5e" stroke-width="3" fill="#ffdda6"/><path d="M-1604.36 1146a6 6 0 0 1 6-6h291.93a6 6 0 0 1 6 6v50.67a6 6 0 0 1-6 6h-291.93a6 6 0 0 1-6-6z" stroke="#000" stroke-opacity="0" stroke-width="3" fill-opacity="0"/><g><use xlink:href="#a" transform="matrix(1,0,0,1,-1599.3562785344589,1145) translate(101.89908854166671 33.86631944444443)"/><use xlink:href="#S" transform="matrix(1,0,0,1,-1599.3562785344589,1145) translate(179.3513454861111 33.86631944444443)"/></g><path d="M-1602.4 1208.67a6 6 0 0 1 6-6h290.4a6 6 0 0 1 6 6v148a6 6 0 0 1-6 6h-290.4a6 6 0 0 1-6-6z" stroke="#000" stroke-opacity="0" stroke-width="3" fill="#fff" fill-opacity="0"/><g><use xlink:href="#T" transform="matrix(1,0,0,1,-1597.393635984429,1207.6666666666665) translate(27.333333333333314 29.868055555555557)"/><use xlink:href="#U" transform="matrix(1,0,0,1,-1597.393635984429,1207.6666666666665) translate(153.93055555555554 29.868055555555557)"/><use xlink:href="#l" transform="matrix(1,0,0,1,-1597.393635984429,1207.6666666666665) translate(227.94097222222223 29.868055555555557)"/><use xlink:href="#V" transform="matrix(1,0,0,1,-1597.393635984429,1207.6666666666665) translate(31.76909722222223 54.70138888888889)"/><use xlink:href="#l" transform="matrix(1,0,0,1,-1597.393635984429,1207.6666666666665) translate(223.50520833333334 54.70138888888889)"/><use xlink:href="#W" transform="matrix(1,0,0,1,-1597.393635984429,1207.6666666666665) translate(46.673611111111114 79.53472222222223)"/><use xlink:href="#l" transform="matrix(1,0,0,1,-1597.393635984429,1207.6666666666665) translate(208.60069444444446 79.53472222222223)"/><use xlink:href="#X" transform="matrix(1,0,0,1,-1597.393635984429,1207.6666666666665) translate(43.30121527777777 104.36805555555556)"/><use xlink:href="#Y" transform="matrix(1,0,0,1,-1597.393635984429,1207.6666666666665) translate(159.4296875 104.36805555555556)"/><use xlink:href="#l" transform="matrix(1,0,0,1,-1597.393635984429,1207.6666666666665) translate(211.97309027777777 104.36805555555556)"/><use xlink:href="#o" transform="matrix(1,0,0,1,-1597.393635984429,1207.6666666666665) translate(146.5 129.2013888888889)"/></g><path d="M-1262.4 746a6 6 0 0 1 6-6h28a6 6 0 0 1 6 6v508a6 6 0 0 1-6 6h-28a6 6 0 0 1-6-6z" fill="none"/><path d="M-1262.4 1260c5.53 0 10-4.48 10-10v-240c0-5.52 4.48-10 10-10-5.52 0-10-4.48-10-10V750c0-5.52-4.47-10-10-10" stroke="#3a414a" stroke-width="5" fill="none"/><defs><path fill="#5e5e5e" d="M687-225c189-1 272-84 286-260h300c-19 311-251 505-586 505C296 20 86-277 86-686c0-466 174-782 605-790 340-6 557 198 584 514H975c-15-183-92-268-284-268-100 0-173 38-225 108-63 84-76 264-76 443 0 157 24 272 72 345s122 109 225 109" id="Z"/><path fill="#5e5e5e" d="M416 0H126v-1536h290V0" id="aa"/><path fill="#5e5e5e" d="M463 20c-241-1-359-147-359-393v-709h289v699c0 113 51 169 154 169 98 0 165-34 202-102v-766h290V0H767l-8-110C688-23 589 20 463 20" id="ab"/><path fill="#5e5e5e" d="M529-185c94 0 168-33 168-114 0-35-18-63-53-83s-91-39-168-55C219-491 90-600 90-765c0-208 203-337 432-337 246 0 451 124 453 349H686c-2-91-62-143-165-143-86 0-151 41-153 117 0 32 16 57 46 77 63 43 257 69 335 100 151 60 229 153 229 291C978-13 554 93 282-28 162-81 60-190 56-344h274c5 106 86 159 199 159" id="ac"/><path fill="#5e5e5e" d="M457-330c2 83 25 111 111 112 32 0 60-2 85-7V-6c-57 17-115 26-175 26-203 0-310-102-310-307v-583H10v-212h158v-266h289v266h185v212H457v540" id="ad"/><path fill="#5e5e5e" d="M1031-175C952-60 797 20 609 20 287 20 60-206 72-543c12-330 180-559 505-559 309 0 482 214 477 537v118H365c15 134 115 234 263 234 111 0 198-40 261-121zM770-644c5-139-62-226-194-224-130 1-191 97-208 224h402" id="ae"/><path fill="#5e5e5e" d="M719-811c-143-24-279 1-319 103V0H111v-1082h273l8 129c74-124 180-175 331-136" id="af"/><g id="a"><use transform="matrix(0.010850694444444435,0,0,0.010850694444444435,0,0)" xlink:href="#Z"/><use transform="matrix(0.010850694444444435,0,0,0.010850694444444435,14.539930555555543,0)" xlink:href="#aa"/><use transform="matrix(0.010850694444444435,0,0,0.010850694444444435,20.43185763888887,0)" xlink:href="#ab"/><use transform="matrix(0.010850694444444435,0,0,0.010850694444444435,32.86675347222219,0)" xlink:href="#ac"/><use transform="matrix(0.010850694444444435,0,0,0.010850694444444435,44.292534722222186,0)" xlink:href="#ad"/><use transform="matrix(0.010850694444444435,0,0,0.010850694444444435,51.801215277777736,0)" xlink:href="#ae"/><use transform="matrix(0.010850694444444435,0,0,0.010850694444444435,63.81293402777772,0)" xlink:href="#af"/></g><path fill="#5e5e5e" d="M801 0H512v-1114l-345 107v-235l603-216h31V0" id="ag"/><use transform="matrix(0.010850694444444435,0,0,0.010850694444444435,0,0)" xlink:href="#ag" id="b"/><path fill="#5e5e5e" d="M952-300H426L326 0H7l542-1456h278L1372 0h-319zM507-543h364l-183-545" id="ah"/><path fill="#5e5e5e" d="M416 0H126v-1082h290V0zM271-1212c-92 0-162-61-162-150s68-149 162-149c93 0 162 60 162 149s-70 150-162 150" id="ai"/><path fill="#5e5e5e" d="M663-1102c295 0 423 246 423 571 0 313-131 551-421 551-117 0-211-45-281-135L371 0H111v-1536h289v551c67-78 154-117 263-117zm-71 889c164 0 209-139 205-339-3-189-44-315-207-315-92 0-155 38-190 113v427c35 76 99 114 192 114" id="aj"/><g id="c"><use transform="matrix(0.010850694444444435,0,0,0.010850694444444435,0,0)" xlink:href="#ah"/><use transform="matrix(0.010850694444444435,0,0,0.010850694444444435,14.767795138888877,0)" xlink:href="#ad"/><use transform="matrix(0.010850694444444435,0,0,0.010850694444444435,22.276475694444425,0)" xlink:href="#ad"/><use transform="matrix(0.010850694444444435,0,0,0.010850694444444435,29.785156249999975,0)" xlink:href="#af"/><use transform="matrix(0.010850694444444435,0,0,0.010850694444444435,37.89062499999997,0)" xlink:href="#ai"/><use transform="matrix(0.010850694444444435,0,0,0.010850694444444435,43.7825520833333,0)" xlink:href="#aj"/><use transform="matrix(0.010850694444444435,0,0,0.010850694444444435,56.29340277777774,0)" xlink:href="#ab"/><use transform="matrix(0.010850694444444435,0,0,0.010850694444444435,68.72829861111106,0)" xlink:href="#ad"/><use transform="matrix(0.010850694444444435,0,0,0.010850694444444435,76.2369791666666,0)" xlink:href="#ae"/><use transform="matrix(0.010850694444444435,0,0,0.010850694444444435,88.24869791666659,0)" xlink:href="#ac"/></g><path fill="#5e5e5e" d="M355-556c-2 203 30 338 206 343 102 3 181-63 182-161h271C1001-128 821 17 566 20 242 24 66-212 66-554c0-320 184-548 498-548 262 0 451 167 450 423H743c-1-108-75-193-184-189-162 6-202 123-204 312" id="ak"/><path fill="#5e5e5e" d="M579 20C257 20 58-214 66-551c8-331 182-551 511-551 324 0 514 231 514 572 0 319-198 550-512 550zm-2-888c-169 0-222 141-222 338 0 181 61 317 224 317 170 0 223-137 223-338 0-178-64-317-225-317" id="al"/><path fill="#5e5e5e" d="M750-692c-1-124-48-174-173-175-81 0-142 35-183 104V0H105v-1082h272l9 125c77-97 181-145 311-145 244 0 342 151 342 403V0H750v-692" id="am"/><path fill="#5e5e5e" d="M552-1102c254-4 435 134 435 383v469c1 103 15 180 43 233V0H738c-13-26-23-58-29-97C639-19 548 20 436 20 238 20 64-113 68-304c5-258 212-357 496-357h133c11-137-29-227-160-227-90 0-156 45-156 131H92c15-231 213-342 460-345zM357-325c0 76 61 124 142 124 88 0 168-45 198-105v-186H589c-152 2-232 51-232 167" id="an"/><g id="d"><use transform="matrix(0.010850694444444435,0,0,0.010850694444444435,0,0)" xlink:href="#ak"/><use transform="matrix(0.010850694444444435,0,0,0.010850694444444435,11.588541666666657,0)" xlink:href="#al"/><use transform="matrix(0.010850694444444435,0,0,0.010850694444444435,24.153645833333314,0)" xlink:href="#am"/><use transform="matrix(0.010850694444444435,0,0,0.010850694444444435,36.599392361111086,0)" xlink:href="#ac"/><use transform="matrix(0.010850694444444435,0,0,0.010850694444444435,48.02517361111108,0)" xlink:href="#ai"/><use transform="matrix(0.010850694444444435,0,0,0.010850694444444435,53.91710069444441,0)" xlink:href="#ac"/><use transform="matrix(0.010850694444444435,0,0,0.010850694444444435,65.3428819444444,0)" xlink:href="#ad"/><use transform="matrix(0.010850694444444435,0,0,0.010850694444444435,72.85156249999994,0)" xlink:href="#an"/><use transform="matrix(0.010850694444444435,0,0,0.010850694444444435,84.76562499999993,0)" xlink:href="#am"/><use transform="matrix(0.010850694444444435,0,0,0.010850694444444435,97.2113715277777,0)" xlink:href="#ad"/></g><g id="e"><use transform="matrix(0.010850694444444435,0,0,0.010850694444444435,0,0)" xlink:href="#ai"/><use transform="matrix(0.010850694444444435,0,0,0.010850694444444435,5.891927083333329,0)" xlink:href="#am"/></g><path fill="#5e5e5e" d="M750-685c-1-124-48-182-173-182-85 0-146 33-184 98V0H104v-1536h289v572c77-92 173-138 289-138 235 0 357 136 357 409V0H750v-685" id="ao"/><g id="f"><use transform="matrix(0.010850694444444435,0,0,0.010850694444444435,0,0)" xlink:href="#ak"/><use transform="matrix(0.010850694444444435,0,0,0.010850694444444435,11.588541666666657,0)" xlink:href="#af"/><use transform="matrix(0.010850694444444435,0,0,0.010850694444444435,19.368489583333318,0)" xlink:href="#an"/><use transform="matrix(0.010850694444444435,0,0,0.010850694444444435,31.282552083333307,0)" xlink:href="#ac"/><use transform="matrix(0.010850694444444435,0,0,0.010850694444444435,42.7083333333333,0)" xlink:href="#ao"/><use transform="matrix(0.010850694444444435,0,0,0.010850694444444435,55.14322916666662,0)" xlink:href="#ae"/><use transform="matrix(0.010850694444444435,0,0,0.010850694444444435,67.15494791666661,0)" xlink:href="#ac"/></g><path fill="#5e5e5e" d="M688-137c238 0 323-102 359-325h193c-32 297-228 482-552 482-361 0-569-299-569-680 0-197 8-360 73-497 88-186 257-317 513-319 316-2 509 195 535 488h-193c-31-212-118-330-342-330-272 0-397 224-393 523v141c-3 282 115 517 376 517" id="ap"/><path fill="#5e5e5e" d="M973-380H363L226 0H28l556-1456h168L1309 0h-197zM421-538h495l-248-681" id="aq"/><path fill="#5e5e5e" d="M417-1456L893-268l476-1188h249V0h-192c-4-403 4-794 18-1179L966 0H819L342-1176c15 384 23 773 19 1176H169v-1456h248" id="ar"/><path fill="#5e5e5e" d="M1222-777c17 480-206 763-650 777H169v-1456h411c408 9 627 269 642 679zm-190 4c3-312-149-522-447-525H361v1141h202c308 0 473-209 469-531v-85" id="as"/><path fill="#5e5e5e" d="M992-673H361v516h733V0H169v-1456h915v158H361v468h631v157" id="at"/><path fill="#5e5e5e" d="M1288 0h-193L362-1122V0H169v-1456h193l735 1127v-1127h191V0" id="au"/><path fill="#5e5e5e" d="M525-543H37v-151h488v151" id="av"/><g id="g"><use transform="matrix(0.008680555555555556,0,0,0.008680555555555556,0,0)" xlink:href="#ap"/><use transform="matrix(0.008680555555555556,0,0,0.008680555555555556,11.571180555555555,0)" xlink:href="#aq"/><use transform="matrix(0.008680555555555556,0,0,0.008680555555555556,23.16840277777778,0)" xlink:href="#ar"/><use transform="matrix(0.008680555555555556,0,0,0.008680555555555556,38.689236111111114,0)" xlink:href="#as"/><use transform="matrix(0.008680555555555556,0,0,0.008680555555555556,50.347222222222236,0)" xlink:href="#at"/><use transform="matrix(0.008680555555555556,0,0,0.008680555555555556,60.4513888888889,0)" xlink:href="#au"/><use transform="matrix(0.008680555555555556,0,0,0.008680555555555556,73.12500000000001,0)" xlink:href="#av"/><use transform="matrix(0.008680555555555556,0,0,0.008680555555555556,78.02951388888889,0)" xlink:href="#ap"/><use transform="matrix(0.008680555555555556,0,0,0.008680555555555556,89.60069444444447,0)" xlink:href="#aq"/><use transform="matrix(0.008680555555555556,0,0,0.008680555555555556,101.19791666666669,0)" xlink:href="#ar"/><use transform="matrix(0.008680555555555556,0,0,0.008680555555555556,116.71875000000001,0)" xlink:href="#as"/><use transform="matrix(0.008680555555555556,0,0,0.008680555555555556,128.37673611111111,0)" xlink:href="#at"/><use transform="matrix(0.008680555555555556,0,0,0.008680555555555556,138.48090277777777,0)" xlink:href="#au"/></g><path fill="#5e5e5e" d="M375 0H183v-1456h192V0" id="aw"/><path fill="#5e5e5e" d="M1175-1298H707V0H516v-1298H49v-158h1126v158" id="ax"/><path fill="#5e5e5e" d="M613-725l380-731h218L709-543V0H517v-543L15-1456h220" id="ay"/><g id="h"><use transform="matrix(0.008680555555555556,0,0,0.008680555555555556,0,0)" xlink:href="#ap"/><use transform="matrix(0.008680555555555556,0,0,0.008680555555555556,11.571180555555555,0)" xlink:href="#aw"/><use transform="matrix(0.008680555555555556,0,0,0.008680555555555556,16.15451388888889,0)" xlink:href="#ax"/><use transform="matrix(0.008680555555555556,0,0,0.008680555555555556,26.901041666666668,0)" xlink:href="#ay"/></g><path fill="#5e5e5e" d="M665-137c214 0 337-121 336-332v-987h193v990c-3 300-218 486-529 486-309 0-526-181-525-484v-992h190v986c-1 210 123 333 335 333" id="az"/><path fill="#5e5e5e" d="M1160-420C1159-145 963 0 674 0H169v-1456h476c294-1 476 112 476 388 0 153-99 253-216 302 146 38 255 167 255 346zM678-157c171 2 289-95 289-261 0-175-95-263-286-263H361v524h317zm250-912c-2-172-104-229-283-229H361v463h290c157 3 278-84 277-234" id="aA"/><path fill="#5e5e5e" d="M1161-1018c0 201-122 330-278 388l342 618V0h-206L703-589H361V0H168v-1456h482c310-2 511 139 511 438zm-193 0c0-187-120-280-313-280H361v552h295c179 3 313-101 312-272" id="aB"/><path fill="#5e5e5e" d="M362-157h690V0H169v-1456h193v1299" id="aC"/><path fill="#5e5e5e" d="M651-255l416-1201h210L737 0H567L28-1456h209" id="aD"/><g id="j"><use transform="matrix(0.008680555555555556,0,0,0.008680555555555556,0,0)" xlink:href="#ap"/><use transform="matrix(0.008680555555555556,0,0,0.008680555555555556,11.571180555555555,0)" xlink:href="#az"/><use transform="matrix(0.008680555555555556,0,0,0.008680555555555556,23.098958333333336,0)" xlink:href="#ar"/><use transform="matrix(0.008680555555555556,0,0,0.008680555555555556,38.61979166666667,0)" xlink:href="#aA"/><use transform="matrix(0.008680555555555556,0,0,0.008680555555555556,49.68750000000001,0)" xlink:href="#at"/><use transform="matrix(0.008680555555555556,0,0,0.008680555555555556,59.79166666666667,0)" xlink:href="#aB"/><use transform="matrix(0.008680555555555556,0,0,0.008680555555555556,70.73784722222223,0)" xlink:href="#aC"/><use transform="matrix(0.008680555555555556,0,0,0.008680555555555556,80.46875000000001,0)" xlink:href="#aq"/><use transform="matrix(0.008680555555555556,0,0,0.008680555555555556,92.06597222222224,0)" xlink:href="#au"/><use transform="matrix(0.008680555555555556,0,0,0.008680555555555556,104.73958333333336,0)" xlink:href="#as"/><use transform="matrix(0.008680555555555556,0,0,0.008680555555555556,116.39756944444447,0)" xlink:href="#av"/><use transform="matrix(0.008680555555555556,0,0,0.008680555555555556,121.30208333333336,0)" xlink:href="#aD"/><use transform="matrix(0.008680555555555556,0,0,0.008680555555555556,132.61284722222226,0)" xlink:href="#aw"/><use transform="matrix(0.008680555555555556,0,0,0.008680555555555556,137.4479166666667,0)" xlink:href="#au"/><use transform="matrix(0.008680555555555556,0,0,0.008680555555555556,150.12152777777783,0)" xlink:href="#at"/><use transform="matrix(0.008680555555555556,0,0,0.008680555555555556,160.22569444444449,0)" xlink:href="#aC"/><use transform="matrix(0.008680555555555556,0,0,0.008680555555555556,169.95659722222226,0)" xlink:href="#aq"/><use transform="matrix(0.008680555555555556,0,0,0.008680555555555556,181.55381944444449,0)" xlink:href="#au"/><use transform="matrix(0.008680555555555556,0,0,0.008680555555555556,194.2274305555556,0)" xlink:href="#as"/></g><path fill="#5e5e5e" d="M1288 0h-193v-673H361V0H169v-1456h192v626h734v-626h193V0" id="aE"/><path fill="#5e5e5e" d="M703-1476c426 0 599 333 586 795-11 408-187 701-584 701-422 0-587-333-587-793 0-282 106-507 280-617 89-56 190-86 305-86zm2 1333c312 0 393-279 393-632 0-308-116-536-395-536-269 0-394 232-394 523v107c-4 298 123 538 396 538" id="aF"/><g id="k"><use transform="matrix(0.008680555555555556,0,0,0.008680555555555556,0,0)" xlink:href="#ar"/><use transform="matrix(0.008680555555555556,0,0,0.008680555555555556,15.520833333333334,0)" xlink:href="#at"/><use transform="matrix(0.008680555555555556,0,0,0.008680555555555556,25.625,0)" xlink:href="#aB"/><use transform="matrix(0.008680555555555556,0,0,0.008680555555555556,36.57118055555556,0)" xlink:href="#ap"/><use transform="matrix(0.008680555555555556,0,0,0.008680555555555556,48.142361111111114,0)" xlink:href="#at"/><use transform="matrix(0.008680555555555556,0,0,0.008680555555555556,58.246527777777786,0)" xlink:href="#aB"/><use transform="matrix(0.008680555555555556,0,0,0.008680555555555556,69.19270833333334,0)" xlink:href="#av"/><use transform="matrix(0.008680555555555556,0,0,0.008680555555555556,74.09722222222223,0)" xlink:href="#aE"/><use transform="matrix(0.008680555555555556,0,0,0.008680555555555556,86.92708333333334,0)" xlink:href="#aq"/><use transform="matrix(0.008680555555555556,0,0,0.008680555555555556,98.52430555555557,0)" xlink:href="#ar"/><use transform="matrix(0.008680555555555556,0,0,0.008680555555555556,114.0451388888889,0)" xlink:href="#aw"/><use transform="matrix(0.008680555555555556,0,0,0.008680555555555556,118.88020833333334,0)" xlink:href="#aC"/><use transform="matrix(0.008680555555555556,0,0,0.008680555555555556,126.0590277777778,0)" xlink:href="#ax"/><use transform="matrix(0.008680555555555556,0,0,0.008680555555555556,136.42361111111114,0)" xlink:href="#aF"/><use transform="matrix(0.008680555555555556,0,0,0.008680555555555556,148.64583333333337,0)" xlink:href="#au"/></g><path fill="#5e5e5e" d="M483-459l28 192 41-173 288-1016h162l281 1016 40 176 31-196 226-996h193L1420 0h-175L945-1061l-23-111-23 111L588 0H413L61-1456h192" id="aG"/><path fill="#5e5e5e" d="M1216-1011c-1 297-202 441-512 441H361V0H169v-1456h537c297-6 510 164 510 445zm-192 2c1-178-126-288-307-289H361v571h345c196 1 318-92 318-282" id="aH"/><g id="l"><use transform="matrix(0.008680555555555556,0,0,0.008680555555555556,0,0)" xlink:href="#ax"/><use transform="matrix(0.008680555555555556,0,0,0.008680555555555556,10.737847222222223,0)" xlink:href="#aG"/><use transform="matrix(0.008680555555555556,0,0,0.008680555555555556,26.510416666666668,0)" xlink:href="#aH"/></g><g id="m"><use transform="matrix(0.008680555555555556,0,0,0.008680555555555556,0,0)" xlink:href="#ar"/><use transform="matrix(0.008680555555555556,0,0,0.008680555555555556,15.520833333333334,0)" xlink:href="#aF"/><use transform="matrix(0.008680555555555556,0,0,0.008680555555555556,27.743055555555557,0)" xlink:href="#au"/><use transform="matrix(0.008680555555555556,0,0,0.008680555555555556,40.41666666666667,0)" xlink:href="#ar"/><use transform="matrix(0.008680555555555556,0,0,0.008680555555555556,55.93750000000001,0)" xlink:href="#aF"/><use transform="matrix(0.008680555555555556,0,0,0.008680555555555556,68.15972222222223,0)" xlink:href="#az"/><use transform="matrix(0.008680555555555556,0,0,0.008680555555555556,79.6875,0)" xlink:href="#ax"/><use transform="matrix(0.008680555555555556,0,0,0.008680555555555556,90.2951388888889,0)" xlink:href="#aE"/><use transform="matrix(0.008680555555555556,0,0,0.008680555555555556,102.96875,0)" xlink:href="#av"/><use transform="matrix(0.008680555555555556,0,0,0.008680555555555556,107.87326388888887,0)" xlink:href="#ar"/><use transform="matrix(0.008680555555555556,0,0,0.008680555555555556,123.39409722222221,0)" xlink:href="#aw"/><use transform="matrix(0.008680555555555556,0,0,0.008680555555555556,128.22916666666666,0)" xlink:href="#as"/><use transform="matrix(0.008680555555555556,0,0,0.008680555555555556,139.88715277777777,0)" xlink:href="#as"/><use transform="matrix(0.008680555555555556,0,0,0.008680555555555556,151.54513888888889,0)" xlink:href="#aC"/><use transform="matrix(0.008680555555555556,0,0,0.008680555555555556,161.11111111111111,0)" xlink:href="#at"/><use transform="matrix(0.008680555555555556,0,0,0.008680555555555556,171.38888888888889,0)" xlink:href="#ax"/><use transform="matrix(0.008680555555555556,0,0,0.008680555555555556,181.75347222222223,0)" xlink:href="#aF"/><use transform="matrix(0.008680555555555556,0,0,0.008680555555555556,193.97569444444446,0)" xlink:href="#aG"/><use transform="matrix(0.008680555555555556,0,0,0.008680555555555556,209.74826388888894,0)" xlink:href="#au"/></g><path fill="#5e5e5e" d="M631-137c179 0 314-70 314-231 0-71-25-127-75-166s-141-77-272-115c-165-47-285-106-360-175s-112-154-112-255c0-245 231-397 495-397 206 0 369 89 449 218 43 68 65 142 65 223H942c0-184-129-283-321-283-172 0-299 76-301 236 0 59 26 109 76 150s135 78 256 113c205 59 345 116 436 256 35 53 50 119 50 193-2 256-231 398-507 390C333 12 90-129 80-422h193c0 187 160 285 358 285" id="aI"/><path fill="#5e5e5e" d="M972-643H361V0H169v-1456h902v158H361v498h611v157" id="aJ"/><g id="n"><use transform="matrix(0.008680555555555556,0,0,0.008680555555555556,0,0)" xlink:href="#aH"/><use transform="matrix(0.008680555555555556,0,0,0.008680555555555556,10.01736111111111,0)" xlink:href="#aq"/><use transform="matrix(0.008680555555555556,0,0,0.008680555555555556,21.614583333333336,0)" xlink:href="#aI"/><use transform="matrix(0.008680555555555556,0,0,0.008680555555555556,32.161458333333336,0)" xlink:href="#aI"/><use transform="matrix(0.008680555555555556,0,0,0.008680555555555556,42.708333333333336,0)" xlink:href="#aq"/><use transform="matrix(0.008680555555555556,0,0,0.008680555555555556,54.30555555555556,0)" xlink:href="#aw"/><use transform="matrix(0.008680555555555556,0,0,0.008680555555555556,59.140625,0)" xlink:href="#ap"/><use transform="matrix(0.008680555555555556,0,0,0.008680555555555556,70.71180555555556,0)" xlink:href="#av"/><use transform="matrix(0.008680555555555556,0,0,0.008680555555555556,75.61631944444444,0)" xlink:href="#ap"/><use transform="matrix(0.008680555555555556,0,0,0.008680555555555556,87.1875,0)" xlink:href="#aC"/><use transform="matrix(0.008680555555555556,0,0,0.008680555555555556,96.75347222222223,0)" xlink:href="#aw"/><use transform="matrix(0.008680555555555556,0,0,0.008680555555555556,101.58854166666667,0)" xlink:href="#aJ"/><use transform="matrix(0.008680555555555556,0,0,0.008680555555555556,111.58854166666667,0)" xlink:href="#ax"/><use transform="matrix(0.008680555555555556,0,0,0.008680555555555556,121.953125,0)" xlink:href="#aF"/><use transform="matrix(0.008680555555555556,0,0,0.008680555555555556,134.17534722222223,0)" xlink:href="#au"/></g><path fill="#5e5e5e" d="M599-131c141 0 220-65 285-146l113 88C906-50 770 20 589 20 281 21 93-214 93-545c0-223 93-397 233-485 74-48 154-72 240-72 300 2 449 218 445 537v77H278c0 197 129 357 321 357zm227-509c-3-180-88-310-260-310-170 0-264 140-282 310h542" id="aK"/><path fill="#5e5e5e" d="M589-945c-131 0-219 81-264 174V0H140v-1536h185v585c82-101 189-151 320-151 229 0 346 129 346 387V0H806v-716c-2-153-65-229-217-229" id="aL"/><path fill="#5e5e5e" d="M341 0H156v-1082h185V0zm-91-1264c-68 0-108-42-109-105 0-62 41-107 109-107s110 44 110 107-42 105-110 105" id="aM"/><path fill="#5e5e5e" d="M277-555c0 244 77 420 297 424 127 2 249-93 255-210h175C980-127 805 20 574 20 258 20 81-222 92-562c11-319 164-533 481-540 237-5 426 165 431 392H829c-7-133-115-242-256-240-209 4-296 166-296 395" id="aN"/><path fill="#5e5e5e" d="M341 0H156v-1536h185V0" id="aO"/><g id="p"><use transform="matrix(0.008680555555555554,0,0,0.008680555555555554,0,0)" xlink:href="#aD"/><use transform="matrix(0.008680555555555554,0,0,0.008680555555555554,10.928819444444443,0)" xlink:href="#aK"/><use transform="matrix(0.008680555555555554,0,0,0.008680555555555554,20.34722222222222,0)" xlink:href="#aL"/><use transform="matrix(0.008680555555555554,0,0,0.008680555555555554,30.138888888888886,0)" xlink:href="#aM"/><use transform="matrix(0.008680555555555554,0,0,0.008680555555555554,34.453125,0)" xlink:href="#aN"/><use transform="matrix(0.008680555555555554,0,0,0.008680555555555554,43.75868055555556,0)" xlink:href="#aO"/><use transform="matrix(0.008680555555555554,0,0,0.008680555555555554,48.07291666666668,0)" xlink:href="#aK"/></g><path fill="#5e5e5e" d="M456 20C285 20 205-92 206-268v-671H9v-143h197v-262h185v262h202v143H391v671c-9 125 92 149 207 118V0c-49 13-96 20-142 20" id="aP"/><path fill="#5e5e5e" d="M589-945c-131 0-219 81-264 174V0H140v-1082h175l6 136c83-104 191-156 324-156 229 0 346 129 346 387V0H806v-716c-2-153-65-229-217-229" id="aQ"/><path fill="#5e5e5e" d="M521 20C240 20 96-239 96-550c0-303 147-552 427-552 132 0 235 47 309 140l9-120h169V-26c4 277-183 454-459 452-165-1-334-81-400-187l96-111c79 98 176 147 291 147 180 1 288-109 286-290v-93C750-23 649 20 521 20zm48-965c-209 0-287 178-287 416 0 217 86 392 285 392 117 0 202-53 257-159v-494c-57-103-142-155-255-155" id="aR"/><g id="q"><use transform="matrix(0.008680555555555554,0,0,0.008680555555555554,0,0)" xlink:href="#aL"/><use transform="matrix(0.008680555555555554,0,0,0.008680555555555554,9.791666666666664,0)" xlink:href="#aM"/><use transform="matrix(0.008680555555555554,0,0,0.008680555555555554,14.105902777777775,0)" xlink:href="#aP"/><use transform="matrix(0.008680555555555554,0,0,0.008680555555555554,19.913194444444443,0)" xlink:href="#aP"/><use transform="matrix(0.008680555555555554,0,0,0.008680555555555554,25.720486111111107,0)" xlink:href="#aM"/><use transform="matrix(0.008680555555555554,0,0,0.008680555555555554,30.034722222222218,0)" xlink:href="#aQ"/><use transform="matrix(0.008680555555555554,0,0,0.008680555555555554,39.84374999999999,0)" xlink:href="#aR"/></g><path fill="#5e5e5e" d="M704-1390c-164-38-297 28-288 194v114h231v143H416V0H231v-939H60v-143h171v-111c-12-274 208-416 483-347" id="aS"/><path fill="#5e5e5e" d="M503-687l240-395h216L605-547 970 0H756L506-405 256 0H41l365-547-354-535h214" id="aT"/><path fill="#5e5e5e" d="M520 20C244 20 95-247 95-550c0-298 151-550 427-552 127 0 227 43 301 130v-564h185V0H838l-9-116C755-25 652 20 520 20zm48-965c-210 0-288 177-288 416 0 218 87 392 286 392 117 0 203-53 257-158v-497c-55-102-140-153-255-153" id="aU"/><g id="r"><use transform="matrix(0.008680555555555554,0,0,0.008680555555555554,0,0)" xlink:href="#aS"/><use transform="matrix(0.008680555555555554,0,0,0.008680555555555554,6.171874999999999,0)" xlink:href="#aM"/><use transform="matrix(0.008680555555555554,0,0,0.008680555555555554,10.48611111111111,0)" xlink:href="#aT"/><use transform="matrix(0.008680555555555554,0,0,0.008680555555555554,19.123263888888886,0)" xlink:href="#aK"/><use transform="matrix(0.008680555555555554,0,0,0.008680555555555554,28.541666666666668,0)" xlink:href="#aU"/></g><path fill="#5e5e5e" d="M584 20C278 26 81-227 91-551c10-320 175-545 491-551 308-5 503 247 494 573-9 322-175 543-492 549zm-2-970c-208 0-305 185-305 421 0 216 106 398 307 398 211 0 307-186 307-420 0-214-109-399-309-399" id="aV"/><path fill="#5e5e5e" d="M634-1102c292 0 422 254 422 573 0 298-143 547-420 549-137 0-242-48-317-145L310 0H140v-1536h185v573c75-93 178-139 309-139zm-44 965c207 0 281-175 281-413 0-224-79-395-283-395-122 0-210 57-263 170v468c57 113 145 170 265 170" id="aW"/><path fill="#5e5e5e" d="M19 279c92 0 127-48 127-150v-1211h185V125c0 208-94 312-283 312-41 0-78-6-113-18V271c21 5 49 8 84 8zm216-1543c-68 0-107-42-108-105 0-61 42-107 108-107 68 0 110 44 110 107s-42 105-110 105" id="aX"/><g id="s"><use transform="matrix(0.008680555555555554,0,0,0.008680555555555554,0,0)" xlink:href="#aV"/><use transform="matrix(0.008680555555555554,0,0,0.008680555555555554,10.138888888888888,0)" xlink:href="#aW"/><use transform="matrix(0.008680555555555554,0,0,0.008680555555555554,20.11284722222222,0)" xlink:href="#aX"/><use transform="matrix(0.008680555555555554,0,0,0.008680555555555554,24.357638888888886,0)" xlink:href="#aK"/><use transform="matrix(0.008680555555555554,0,0,0.008680555555555554,33.776041666666664,0)" xlink:href="#aN"/><use transform="matrix(0.008680555555555554,0,0,0.008680555555555554,43.081597222222214,0)" xlink:href="#aP"/></g><g id="t"><use transform="matrix(0.008680555555555554,0,0,0.008680555555555554,0,0)" xlink:href="#aq"/><use transform="matrix(0.008680555555555554,0,0,0.008680555555555554,11.59722222222222,0)" xlink:href="#aO"/><use transform="matrix(0.008680555555555554,0,0,0.008680555555555554,15.91145833333333,0)" xlink:href="#aN"/><use transform="matrix(0.008680555555555554,0,0,0.008680555555555554,25.217013888888886,0)" xlink:href="#aV"/><use transform="matrix(0.008680555555555554,0,0,0.008680555555555554,35.35590277777777,0)" xlink:href="#aL"/><use transform="matrix(0.008680555555555554,0,0,0.008680555555555554,45.147569444444436,0)" xlink:href="#aV"/><use transform="matrix(0.008680555555555554,0,0,0.008680555555555554,55.28645833333332,0)" xlink:href="#aO"/></g><path fill="#5e5e5e" d="M1098-255l208-827h185L1176 0h-150L763-820 507 0H357L43-1082h184l213 810 252-810h149" id="aY"/><path fill="#5e5e5e" d="M561-1102c238-4 403 126 403 351v498c0 99 13 178 38 237V0H808c-11-21-19-59-26-114C696-25 593 20 474 20c-199 0-368-130-365-320 4-251 214-359 490-356h180v-85c-1-135-86-212-229-212-115 0-232 67-233 171H131c20-205 206-316 430-320zM294-326c0 117 90 185 207 185 122 0 239-75 278-162v-222H634c-227 0-340 66-340 199" id="aZ"/><path fill="#5e5e5e" d="M538-131c121 0 232-49 232-156 0-50-20-88-56-117-73-60-334-92-420-143-92-55-162-110-162-238 0-190 192-317 400-317 223 0 414 129 413 338H759c0-108-110-186-227-186-119 0-215 53-215 159 0 45 18 78 53 101 76 52 331 90 416 139 98 57 169 115 169 251C955-92 760 20 538 20c-176 0-314-68-386-174-38-55-57-115-57-179h185c6 129 116 202 258 202" id="ba"/><g id="u"><use transform="matrix(0.008680555555555554,0,0,0.008680555555555554,0,0)" xlink:href="#aY"/><use transform="matrix(0.008680555555555554,0,0,0.008680555555555554,13.359374999999998,0)" xlink:href="#aZ"/><use transform="matrix(0.008680555555555554,0,0,0.008680555555555554,23.029513888888886,0)" xlink:href="#ba"/></g><path fill="#5e5e5e" d="M491 20c-241-1-355-148-355-398v-704h185v699c0 164 67 246 200 246 141 0 235-53 282-158v-787h185V0H812l-4-107C736-22 630 20 491 20" id="bb"/><g id="v"><use transform="matrix(0.008680555555555554,0,0,0.008680555555555554,0,0)" xlink:href="#bb"/><use transform="matrix(0.008680555555555554,0,0,0.008680555555555554,9.800347222222221,0)" xlink:href="#ba"/><use transform="matrix(0.008680555555555554,0,0,0.008680555555555554,18.967013888888886,0)" xlink:href="#aK"/><use transform="matrix(0.008680555555555554,0,0,0.008680555555555554,28.385416666666668,0)" xlink:href="#aU"/></g><g id="w"><use transform="matrix(0.008680555555555554,0,0,0.008680555555555554,0,0)" xlink:href="#aB"/><use transform="matrix(0.008680555555555554,0,0,0.008680555555555554,10.946180555555554,0)" xlink:href="#aZ"/><use transform="matrix(0.008680555555555554,0,0,0.008680555555555554,20.616319444444443,0)" xlink:href="#aQ"/></g><path fill="#5e5e5e" d="M663-916c-163-27-288 18-338 148V0H140v-1082h180l3 125c61-97 147-145 258-145 36 0 63 5 82 14v172" id="bc"/><g id="x"><use transform="matrix(0.008680555555555554,0,0,0.008680555555555554,0,0)" xlink:href="#aV"/><use transform="matrix(0.008680555555555554,0,0,0.008680555555555554,10.138888888888888,0)" xlink:href="#aS"/><use transform="matrix(0.008680555555555554,0,0,0.008680555555555554,16.310763888888886,0)" xlink:href="#aS"/><use transform="matrix(0.008680555555555554,0,0,0.008680555555555554,22.482638888888886,0)" xlink:href="#av"/><use transform="matrix(0.008680555555555554,0,0,0.008680555555555554,27.387152777777775,0)" xlink:href="#bc"/><use transform="matrix(0.008680555555555554,0,0,0.008680555555555554,33.229166666666664,0)" xlink:href="#aV"/><use transform="matrix(0.008680555555555554,0,0,0.008680555555555554,43.36805555555555,0)" xlink:href="#aZ"/><use transform="matrix(0.008680555555555554,0,0,0.008680555555555554,53.038194444444436,0)" xlink:href="#aU"/></g><path fill="#5e5e5e" d="M319-664C304-226 428 158 661 357l-38 113c-89-49-172-133-254-248C142-97 71-578 194-1025c67-244 240-513 429-618l38 122c-201 153-330 502-342 857" id="bd"/><path fill="#5e5e5e" d="M38 357C331 141 457-487 337-984c-53-219-157-429-299-546l39-113c190 106 362 378 431 621 75 268 76 597 0 868C440 88 266 365 77 470" id="be"/><g id="y"><use transform="matrix(0.008680555555555554,0,0,0.008680555555555554,0,0)" xlink:href="#bd"/><use transform="matrix(0.008680555555555554,0,0,0.008680555555555554,6.0763888888888875,0)" xlink:href="#bc"/><use transform="matrix(0.008680555555555554,0,0,0.008680555555555554,12.092013888888886,0)" xlink:href="#aM"/><use transform="matrix(0.008680555555555554,0,0,0.008680555555555554,16.406249999999996,0)" xlink:href="#aR"/><use transform="matrix(0.008680555555555554,0,0,0.008680555555555554,26.38020833333333,0)" xlink:href="#aL"/><use transform="matrix(0.008680555555555554,0,0,0.008680555555555554,36.17187499999999,0)" xlink:href="#aP"/><use transform="matrix(0.008680555555555554,0,0,0.008680555555555554,41.97916666666666,0)" xlink:href="#be"/></g><g id="z"><use transform="matrix(0.008680555555555554,0,0,0.008680555555555554,0,0)" xlink:href="#aI"/><use transform="matrix(0.008680555555555554,0,0,0.008680555555555554,10.546874999999998,0)" xlink:href="#aQ"/><use transform="matrix(0.008680555555555554,0,0,0.008680555555555554,20.355902777777775,0)" xlink:href="#aV"/><use transform="matrix(0.008680555555555554,0,0,0.008680555555555554,30.494791666666664,0)" xlink:href="#aY"/></g><g id="A"><use transform="matrix(0.008680555555555554,0,0,0.008680555555555554,0,0)" xlink:href="#aZ"/><use transform="matrix(0.008680555555555554,0,0,0.008680555555555554,9.670138888888888,0)" xlink:href="#aQ"/><use transform="matrix(0.008680555555555554,0,0,0.008680555555555554,19.479166666666664,0)" xlink:href="#aU"/></g><g id="B"><use transform="matrix(0.008680555555555554,0,0,0.008680555555555554,0,0)" xlink:href="#bc"/><use transform="matrix(0.008680555555555554,0,0,0.008680555555555554,5.668402777777777,0)" xlink:href="#aZ"/><use transform="matrix(0.008680555555555554,0,0,0.008680555555555554,15.338541666666664,0)" xlink:href="#aM"/><use transform="matrix(0.008680555555555554,0,0,0.008680555555555554,19.652777777777775,0)" xlink:href="#aQ"/></g><g id="C"><use transform="matrix(0.008680555555555554,0,0,0.008680555555555554,0,0)" xlink:href="#aY"/><use transform="matrix(0.008680555555555554,0,0,0.008680555555555554,13.359374999999998,0)" xlink:href="#aK"/><use transform="matrix(0.008680555555555554,0,0,0.008680555555555554,22.777777777777775,0)" xlink:href="#aZ"/><use transform="matrix(0.008680555555555554,0,0,0.008680555555555554,32.447916666666664,0)" xlink:href="#aP"/><use transform="matrix(0.008680555555555554,0,0,0.008680555555555554,38.25520833333333,0)" xlink:href="#aL"/><use transform="matrix(0.008680555555555554,0,0,0.008680555555555554,48.04687499999999,0)" xlink:href="#aK"/><use transform="matrix(0.008680555555555554,0,0,0.008680555555555554,57.46527777777777,0)" xlink:href="#bc"/></g><path fill="#5e5e5e" d="M177 125H18l608-1581h158" id="bf"/><g id="D"><use transform="matrix(0.008680555555555554,0,0,0.008680555555555554,0,0)" xlink:href="#aE"/><use transform="matrix(0.008680555555555554,0,0,0.008680555555555554,12.673611111111109,0)" xlink:href="#aK"/><use transform="matrix(0.008680555555555554,0,0,0.008680555555555554,22.092013888888886,0)" xlink:href="#aZ"/><use transform="matrix(0.008680555555555554,0,0,0.008680555555555554,31.76215277777777,0)" xlink:href="#aU"/><use transform="matrix(0.008680555555555554,0,0,0.008680555555555554,41.788194444444436,0)" xlink:href="#av"/><use transform="matrix(0.008680555555555554,0,0,0.008680555555555554,46.69270833333332,0)" xlink:href="#aV"/><use transform="matrix(0.008680555555555554,0,0,0.008680555555555554,56.83159722222221,0)" xlink:href="#aQ"/><use transform="matrix(0.008680555555555554,0,0,0.008680555555555554,66.64062499999999,0)" xlink:href="#bf"/><use transform="matrix(0.008680555555555554,0,0,0.008680555555555554,73.96701388888887,0)" xlink:href="#aq"/><use transform="matrix(0.008680555555555554,0,0,0.008680555555555554,85.56423611111109,0)" xlink:href="#aQ"/><use transform="matrix(0.008680555555555554,0,0,0.008680555555555554,95.37326388888886,0)" xlink:href="#aR"/><use transform="matrix(0.008680555555555554,0,0,0.008680555555555554,105.34722222222219,0)" xlink:href="#bb"/><use transform="matrix(0.008680555555555554,0,0,0.008680555555555554,115.1475694444444,0)" xlink:href="#aO"/><use transform="matrix(0.008680555555555554,0,0,0.008680555555555554,119.46180555555551,0)" xlink:href="#aZ"/><use transform="matrix(0.008680555555555554,0,0,0.008680555555555554,129.1319444444444,0)" xlink:href="#bc"/></g><g id="E"><use transform="matrix(0.008680555555555554,0,0,0.008680555555555554,0,0)" xlink:href="#aN"/><use transform="matrix(0.008680555555555554,0,0,0.008680555555555554,9.305555555555554,0)" xlink:href="#aV"/><use transform="matrix(0.008680555555555554,0,0,0.008680555555555554,19.444444444444443,0)" xlink:href="#aO"/><use transform="matrix(0.008680555555555554,0,0,0.008680555555555554,23.758680555555554,0)" xlink:href="#aO"/><use transform="matrix(0.008680555555555554,0,0,0.008680555555555554,28.072916666666668,0)" xlink:href="#aM"/><use transform="matrix(0.008680555555555554,0,0,0.008680555555555554,32.38715277777777,0)" xlink:href="#ba"/><use transform="matrix(0.008680555555555554,0,0,0.008680555555555554,41.553819444444436,0)" xlink:href="#aM"/><use transform="matrix(0.008680555555555554,0,0,0.008680555555555554,45.86805555555554,0)" xlink:href="#aV"/><use transform="matrix(0.008680555555555554,0,0,0.008680555555555554,56.00694444444443,0)" xlink:href="#aQ"/></g><g id="F"><use transform="matrix(0.008680555555555554,0,0,0.008680555555555554,0,0)" xlink:href="#au"/><use transform="matrix(0.008680555555555554,0,0,0.008680555555555554,12.673611111111109,0)" xlink:href="#aV"/><use transform="matrix(0.008680555555555554,0,0,0.008680555555555554,22.812499999999996,0)" xlink:href="#aP"/></g><g id="G"><use transform="matrix(0.008680555555555554,0,0,0.008680555555555554,0,0)" xlink:href="#aZ"/><use transform="matrix(0.008680555555555554,0,0,0.008680555555555554,9.670138888888888,0)" xlink:href="#aP"/></g><g id="H"><use transform="matrix(0.008680555555555554,0,0,0.008680555555555554,0,0)" xlink:href="#aZ"/><use transform="matrix(0.008680555555555554,0,0,0.008680555555555554,9.670138888888888,0)" xlink:href="#aQ"/></g><g id="I"><use transform="matrix(0.008680555555555554,0,0,0.008680555555555554,0,0)" xlink:href="#aM"/><use transform="matrix(0.008680555555555554,0,0,0.008680555555555554,4.314236111111111,0)" xlink:href="#aQ"/><use transform="matrix(0.008680555555555554,0,0,0.008680555555555554,14.123263888888888,0)" xlink:href="#aP"/><use transform="matrix(0.008680555555555554,0,0,0.008680555555555554,19.930555555555554,0)" xlink:href="#aK"/><use transform="matrix(0.008680555555555554,0,0,0.008680555555555554,29.34895833333333,0)" xlink:href="#bc"/><use transform="matrix(0.008680555555555554,0,0,0.008680555555555554,35.36458333333333,0)" xlink:href="#ba"/><use transform="matrix(0.008680555555555554,0,0,0.008680555555555554,44.53124999999999,0)" xlink:href="#aK"/><use transform="matrix(0.008680555555555554,0,0,0.008680555555555554,53.94965277777777,0)" xlink:href="#aN"/><use transform="matrix(0.008680555555555554,0,0,0.008680555555555554,63.25520833333333,0)" xlink:href="#aP"/><use transform="matrix(0.008680555555555554,0,0,0.008680555555555554,69.0625,0)" xlink:href="#aM"/><use transform="matrix(0.008680555555555554,0,0,0.008680555555555554,73.37673611111111,0)" xlink:href="#aV"/><use transform="matrix(0.008680555555555554,0,0,0.008680555555555554,83.515625,0)" xlink:href="#aQ"/></g><path fill="#5e5e5e" d="M566-213c130 0 220-75 220-199 0-145-80-218-240-218H393v-226h154c138 3 214-73 216-201 1-118-78-186-197-186-103 0-197 64-195 164H82c11-259 212-391 477-397 286-6 493 142 493 415 0 151-107 263-221 313 147 51 242 159 244 340 3 272-230 428-516 428C289 20 61-138 64-399h289c-3 111 100 186 213 186" id="bg"/><use transform="matrix(0.010850694444444435,0,0,0.010850694444444435,0,0)" xlink:href="#bg" id="K"/><g id="L"><use transform="matrix(0.008680555555555556,0,0,0.008680555555555556,0,0)" xlink:href="#ap"/><use transform="matrix(0.008680555555555556,0,0,0.008680555555555556,11.571180555555555,0)" xlink:href="#aq"/><use transform="matrix(0.008680555555555556,0,0,0.008680555555555556,23.16840277777778,0)" xlink:href="#ar"/><use transform="matrix(0.008680555555555556,0,0,0.008680555555555556,38.689236111111114,0)" xlink:href="#as"/><use transform="matrix(0.008680555555555556,0,0,0.008680555555555556,50.347222222222236,0)" xlink:href="#at"/><use transform="matrix(0.008680555555555556,0,0,0.008680555555555556,60.4513888888889,0)" xlink:href="#au"/><use transform="matrix(0.008680555555555556,0,0,0.008680555555555556,73.12500000000001,0)" xlink:href="#av"/><use transform="matrix(0.008680555555555556,0,0,0.008680555555555556,78.02951388888889,0)" xlink:href="#ap"/><use transform="matrix(0.008680555555555556,0,0,0.008680555555555556,89.60069444444447,0)" xlink:href="#aE"/><use transform="matrix(0.008680555555555556,0,0,0.008680555555555556,102.27430555555557,0)" xlink:href="#at"/><use transform="matrix(0.008680555555555556,0,0,0.008680555555555556,112.37847222222224,0)" xlink:href="#aB"/><use transform="matrix(0.008680555555555556,0,0,0.008680555555555556,123.3246527777778,0)" xlink:href="#aB"/><use transform="matrix(0.008680555555555556,0,0,0.008680555555555556,133.85416666666669,0)" xlink:href="#ay"/></g><g id="M"><use transform="matrix(0.008680555555555556,0,0,0.008680555555555556,0,0)" xlink:href="#aE"/><use transform="matrix(0.008680555555555556,0,0,0.008680555555555556,12.673611111111112,0)" xlink:href="#aw"/><use transform="matrix(0.008680555555555556,0,0,0.008680555555555556,17.508680555555557,0)" xlink:href="#aC"/><use transform="matrix(0.008680555555555556,0,0,0.008680555555555556,27.07465277777778,0)" xlink:href="#aC"/></g><path fill="#5e5e5e" d="M644-898l349-558h226L759-734 1230 0h-228L644-568 284 0H57l472-734-461-722h225" id="bh"/><path fill="#5e5e5e" d="M539-677L361-492V0H169v-1456h192v720l647-720h232L667-813 1285 0h-230" id="bi"/><g id="N"><use transform="matrix(0.008680555555555556,0,0,0.008680555555555556,0,0)" xlink:href="#at"/><use transform="matrix(0.008680555555555556,0,0,0.008680555555555556,10.104166666666668,0)" xlink:href="#aI"/><use transform="matrix(0.008680555555555556,0,0,0.008680555555555556,20.651041666666668,0)" xlink:href="#aI"/><use transform="matrix(0.008680555555555556,0,0,0.008680555555555556,31.197916666666668,0)" xlink:href="#at"/><use transform="matrix(0.008680555555555556,0,0,0.008680555555555556,41.302083333333336,0)" xlink:href="#bh"/><use transform="matrix(0.008680555555555556,0,0,0.008680555555555556,52.048611111111114,0)" xlink:href="#av"/><use transform="matrix(0.008680555555555556,0,0,0.008680555555555556,56.953125,0)" xlink:href="#au"/><use transform="matrix(0.008680555555555556,0,0,0.008680555555555556,69.62673611111111,0)" xlink:href="#at"/><use transform="matrix(0.008680555555555556,0,0,0.008680555555555556,79.73090277777779,0)" xlink:href="#aG"/><use transform="matrix(0.008680555555555556,0,0,0.008680555555555556,95.13020833333334,0)" xlink:href="#aq"/><use transform="matrix(0.008680555555555556,0,0,0.008680555555555556,106.72743055555557,0)" xlink:href="#aB"/><use transform="matrix(0.008680555555555556,0,0,0.008680555555555556,117.67361111111113,0)" xlink:href="#bi"/></g><path fill="#5e5e5e" d="M512-137c164 0 267-115 267-285v-1034h193v1031c4 276-186 445-460 445C234 20 52-130 53-402h192c0 167 97 265 267 265" id="bj"/><g id="O"><use transform="matrix(0.008680555555555556,0,0,0.008680555555555556,0,0)" xlink:href="#aE"/><use transform="matrix(0.008680555555555556,0,0,0.008680555555555556,12.673611111111112,0)" xlink:href="#az"/><use transform="matrix(0.008680555555555556,0,0,0.008680555555555556,24.201388888888893,0)" xlink:href="#as"/><use transform="matrix(0.008680555555555556,0,0,0.008680555555555556,35.85937500000001,0)" xlink:href="#aI"/><use transform="matrix(0.008680555555555556,0,0,0.008680555555555556,46.40625000000001,0)" xlink:href="#aF"/><use transform="matrix(0.008680555555555556,0,0,0.008680555555555556,58.62847222222222,0)" xlink:href="#au"/><use transform="matrix(0.008680555555555556,0,0,0.008680555555555556,71.30208333333334,0)" xlink:href="#av"/><use transform="matrix(0.008680555555555556,0,0,0.008680555555555556,76.20659722222223,0)" xlink:href="#bj"/><use transform="matrix(0.008680555555555556,0,0,0.008680555555555556,86.015625,0)" xlink:href="#at"/><use transform="matrix(0.008680555555555556,0,0,0.008680555555555556,96.11979166666667,0)" xlink:href="#aB"/><use transform="matrix(0.008680555555555556,0,0,0.008680555555555556,107.06597222222223,0)" xlink:href="#aI"/><use transform="matrix(0.008680555555555556,0,0,0.008680555555555556,117.61284722222223,0)" xlink:href="#at"/><use transform="matrix(0.008680555555555556,0,0,0.008680555555555556,127.7170138888889,0)" xlink:href="#ay"/></g><g id="P"><use transform="matrix(0.008680555555555556,0,0,0.008680555555555556,0,0)" xlink:href="#ar"/><use transform="matrix(0.008680555555555556,0,0,0.008680555555555556,15.520833333333334,0)" xlink:href="#aw"/><use transform="matrix(0.008680555555555556,0,0,0.008680555555555556,20.35590277777778,0)" xlink:href="#as"/><use transform="matrix(0.008680555555555556,0,0,0.008680555555555556,32.01388888888889,0)" xlink:href="#as"/><use transform="matrix(0.008680555555555556,0,0,0.008680555555555556,43.67187500000001,0)" xlink:href="#aC"/><use transform="matrix(0.008680555555555556,0,0,0.008680555555555556,53.237847222222236,0)" xlink:href="#at"/><use transform="matrix(0.008680555555555556,0,0,0.008680555555555556,63.3420138888889,0)" xlink:href="#aI"/><use transform="matrix(0.008680555555555556,0,0,0.008680555555555556,73.88888888888889,0)" xlink:href="#at"/><use transform="matrix(0.008680555555555556,0,0,0.008680555555555556,83.99305555555557,0)" xlink:href="#bh"/><use transform="matrix(0.008680555555555556,0,0,0.008680555555555556,94.73958333333334,0)" xlink:href="#av"/><use transform="matrix(0.008680555555555556,0,0,0.008680555555555556,99.64409722222223,0)" xlink:href="#at"/><use transform="matrix(0.008680555555555556,0,0,0.008680555555555556,109.7482638888889,0)" xlink:href="#as"/><use transform="matrix(0.008680555555555556,0,0,0.008680555555555556,121.40625000000001,0)" xlink:href="#aw"/><use transform="matrix(0.008680555555555556,0,0,0.008680555555555556,126.24131944444446,0)" xlink:href="#aI"/><use transform="matrix(0.008680555555555556,0,0,0.008680555555555556,136.78819444444446,0)" xlink:href="#aF"/><use transform="matrix(0.008680555555555556,0,0,0.008680555555555556,149.01041666666669,0)" xlink:href="#au"/></g><path fill="#5e5e5e" d="M730-137c145 0 253-29 323-105v-327H716v-156h528v534C1148-51 964 20 729 20c-394 0-598-279-607-678v-127c-5-410 194-690 585-691 310-1 499 171 537 447h-192c-36-193-151-289-344-289-285 0-393 220-393 528v119c-5 296 140 534 415 534" id="bk"/><g id="Q"><use transform="matrix(0.008680555555555556,0,0,0.008680555555555556,0,0)" xlink:href="#ar"/><use transform="matrix(0.008680555555555556,0,0,0.008680555555555556,15.520833333333334,0)" xlink:href="#aw"/><use transform="matrix(0.008680555555555556,0,0,0.008680555555555556,20.35590277777778,0)" xlink:href="#as"/><use transform="matrix(0.008680555555555556,0,0,0.008680555555555556,32.01388888888889,0)" xlink:href="#as"/><use transform="matrix(0.008680555555555556,0,0,0.008680555555555556,43.67187500000001,0)" xlink:href="#aC"/><use transform="matrix(0.008680555555555556,0,0,0.008680555555555556,53.237847222222236,0)" xlink:href="#at"/><use transform="matrix(0.008680555555555556,0,0,0.008680555555555556,63.3420138888889,0)" xlink:href="#aI"/><use transform="matrix(0.008680555555555556,0,0,0.008680555555555556,73.88888888888889,0)" xlink:href="#at"/><use transform="matrix(0.008680555555555556,0,0,0.008680555555555556,83.99305555555557,0)" xlink:href="#bh"/><use transform="matrix(0.008680555555555556,0,0,0.008680555555555556,94.73958333333334,0)" xlink:href="#av"/><use transform="matrix(0.008680555555555556,0,0,0.008680555555555556,99.64409722222223,0)" xlink:href="#aG"/><use transform="matrix(0.008680555555555556,0,0,0.008680555555555556,115.41666666666667,0)" xlink:href="#aF"/><use transform="matrix(0.008680555555555556,0,0,0.008680555555555556,127.6388888888889,0)" xlink:href="#aF"/><use transform="matrix(0.008680555555555556,0,0,0.008680555555555556,139.86111111111111,0)" xlink:href="#as"/><use transform="matrix(0.008680555555555556,0,0,0.008680555555555556,151.51909722222223,0)" xlink:href="#aA"/><use transform="matrix(0.008680555555555556,0,0,0.008680555555555556,162.58680555555557,0)" xlink:href="#aB"/><use transform="matrix(0.008680555555555556,0,0,0.008680555555555556,173.53298611111111,0)" xlink:href="#aw"/><use transform="matrix(0.008680555555555556,0,0,0.008680555555555556,178.36805555555557,0)" xlink:href="#as"/><use transform="matrix(0.008680555555555556,0,0,0.008680555555555556,190.02604166666669,0)" xlink:href="#bk"/><use transform="matrix(0.008680555555555556,0,0,0.008680555555555556,202.13541666666669,0)" xlink:href="#at"/></g><g id="R"><use transform="matrix(0.008680555555555556,0,0,0.008680555555555556,0,0)" xlink:href="#aH"/><use transform="matrix(0.008680555555555556,0,0,0.008680555555555556,10.01736111111111,0)" xlink:href="#aq"/><use transform="matrix(0.008680555555555556,0,0,0.008680555555555556,21.614583333333336,0)" xlink:href="#aI"/><use transform="matrix(0.008680555555555556,0,0,0.008680555555555556,32.161458333333336,0)" xlink:href="#aI"/><use transform="matrix(0.008680555555555556,0,0,0.008680555555555556,42.708333333333336,0)" xlink:href="#aq"/><use transform="matrix(0.008680555555555556,0,0,0.008680555555555556,54.30555555555556,0)" xlink:href="#aw"/><use transform="matrix(0.008680555555555556,0,0,0.008680555555555556,59.140625,0)" xlink:href="#ap"/><use transform="matrix(0.008680555555555556,0,0,0.008680555555555556,70.71180555555556,0)" xlink:href="#av"/><use transform="matrix(0.008680555555555556,0,0,0.008680555555555556,75.61631944444444,0)" xlink:href="#aH"/><use transform="matrix(0.008680555555555556,0,0,0.008680555555555556,85.63368055555554,0)" xlink:href="#aq"/><use transform="matrix(0.008680555555555556,0,0,0.008680555555555556,97.23090277777777,0)" xlink:href="#ax"/><use transform="matrix(0.008680555555555556,0,0,0.008680555555555556,107.83854166666666,0)" xlink:href="#at"/><use transform="matrix(0.008680555555555556,0,0,0.008680555555555556,117.94270833333333,0)" xlink:href="#aB"/><use transform="matrix(0.008680555555555556,0,0,0.008680555555555556,128.88888888888889,0)" xlink:href="#aI"/><use transform="matrix(0.008680555555555556,0,0,0.008680555555555556,139.43576388888889,0)" xlink:href="#aF"/><use transform="matrix(0.008680555555555556,0,0,0.008680555555555556,151.65798611111111,0)" xlink:href="#au"/></g><path fill="#5e5e5e" d="M613 20c-318 5-513-255-513-587 0-383 107-664 346-803 125-73 262-106 437-101v238c-277-7-455 136-487 377 77-79 175-118 293-118 264-2 420 219 414 494-7 301-189 495-490 500zm202-497c0-145-76-266-214-265-99 0-180 60-211 133v88c-2 170 63 306 217 308 132 2 208-123 208-264" id="bl"/><use transform="matrix(0.010850694444444435,0,0,0.010850694444444435,0,0)" xlink:href="#bl" id="S"/><g id="T"><use transform="matrix(0.008680555555555556,0,0,0.008680555555555556,0,0)" xlink:href="#aq"/><use transform="matrix(0.008680555555555556,0,0,0.008680555555555556,11.597222222222223,0)" xlink:href="#ax"/><use transform="matrix(0.008680555555555556,0,0,0.008680555555555556,22.204861111111114,0)" xlink:href="#aC"/><use transform="matrix(0.008680555555555556,0,0,0.008680555555555556,31.935763888888893,0)" xlink:href="#aq"/><use transform="matrix(0.008680555555555556,0,0,0.008680555555555556,43.532986111111114,0)" xlink:href="#au"/><use transform="matrix(0.008680555555555556,0,0,0.008680555555555556,55.954861111111114,0)" xlink:href="#ax"/><use transform="matrix(0.008680555555555556,0,0,0.008680555555555556,66.5625,0)" xlink:href="#aw"/><use transform="matrix(0.008680555555555556,0,0,0.008680555555555556,71.39756944444444,0)" xlink:href="#ap"/><use transform="matrix(0.008680555555555556,0,0,0.008680555555555556,82.96875,0)" xlink:href="#av"/><use transform="matrix(0.008680555555555556,0,0,0.008680555555555556,87.87326388888889,0)" xlink:href="#at"/><use transform="matrix(0.008680555555555556,0,0,0.008680555555555556,97.97743055555556,0)" xlink:href="#bk"/><use transform="matrix(0.008680555555555556,0,0,0.008680555555555556,110.08680555555556,0)" xlink:href="#bk"/></g><g id="U"><use transform="matrix(0.008680555555555556,0,0,0.008680555555555556,0,0)" xlink:href="#aE"/><use transform="matrix(0.008680555555555556,0,0,0.008680555555555556,12.829861111111112,0)" xlink:href="#aq"/><use transform="matrix(0.008680555555555556,0,0,0.008680555555555556,24.427083333333336,0)" xlink:href="#aB"/><use transform="matrix(0.008680555555555556,0,0,0.008680555555555556,35.37326388888889,0)" xlink:href="#aA"/><use transform="matrix(0.008680555555555556,0,0,0.008680555555555556,46.440972222222236,0)" xlink:href="#aF"/><use transform="matrix(0.008680555555555556,0,0,0.008680555555555556,58.66319444444445,0)" xlink:href="#aB"/></g><g id="V"><use transform="matrix(0.008680555555555556,0,0,0.008680555555555556,0,0)" xlink:href="#bk"/><use transform="matrix(0.008680555555555556,0,0,0.008680555555555556,12.109375,0)" xlink:href="#aC"/><use transform="matrix(0.008680555555555556,0,0,0.008680555555555556,21.111111111111114,0)" xlink:href="#aF"/><use transform="matrix(0.008680555555555556,0,0,0.008680555555555556,33.333333333333336,0)" xlink:href="#az"/><use transform="matrix(0.008680555555555556,0,0,0.008680555555555556,44.861111111111114,0)" xlink:href="#ap"/><use transform="matrix(0.008680555555555556,0,0,0.008680555555555556,56.43229166666667,0)" xlink:href="#at"/><use transform="matrix(0.008680555555555556,0,0,0.008680555555555556,66.53645833333334,0)" xlink:href="#aI"/><use transform="matrix(0.008680555555555556,0,0,0.008680555555555556,77.08333333333334,0)" xlink:href="#ax"/><use transform="matrix(0.008680555555555556,0,0,0.008680555555555556,87.69097222222223,0)" xlink:href="#at"/><use transform="matrix(0.008680555555555556,0,0,0.008680555555555556,97.7951388888889,0)" xlink:href="#aB"/><use transform="matrix(0.008680555555555556,0,0,0.008680555555555556,108.74131944444444,0)" xlink:href="#av"/><use transform="matrix(0.008680555555555556,0,0,0.008680555555555556,113.64583333333334,0)" xlink:href="#ar"/><use transform="matrix(0.008680555555555556,0,0,0.008680555555555556,129.16666666666669,0)" xlink:href="#aF"/><use transform="matrix(0.008680555555555556,0,0,0.008680555555555556,141.3888888888889,0)" xlink:href="#au"/><use transform="matrix(0.008680555555555556,0,0,0.008680555555555556,154.06250000000003,0)" xlink:href="#aB"/><use transform="matrix(0.008680555555555556,0,0,0.008680555555555556,165.00868055555557,0)" xlink:href="#aF"/><use transform="matrix(0.008680555555555556,0,0,0.008680555555555556,177.23090277777777,0)" xlink:href="#at"/></g><g id="W"><use transform="matrix(0.008680555555555556,0,0,0.008680555555555556,0,0)" xlink:href="#aF"/><use transform="matrix(0.008680555555555556,0,0,0.008680555555555556,12.222222222222223,0)" xlink:href="#ap"/><use transform="matrix(0.008680555555555556,0,0,0.008680555555555556,23.79340277777778,0)" xlink:href="#at"/><use transform="matrix(0.008680555555555556,0,0,0.008680555555555556,33.89756944444444,0)" xlink:href="#aq"/><use transform="matrix(0.008680555555555556,0,0,0.008680555555555556,45.494791666666664,0)" xlink:href="#au"/><use transform="matrix(0.008680555555555556,0,0,0.008680555555555556,58.16840277777778,0)" xlink:href="#av"/><use transform="matrix(0.008680555555555556,0,0,0.008680555555555556,63.07291666666667,0)" xlink:href="#aC"/><use transform="matrix(0.008680555555555556,0,0,0.008680555555555556,72.80381944444446,0)" xlink:href="#aq"/><use transform="matrix(0.008680555555555556,0,0,0.008680555555555556,84.40104166666669,0)" xlink:href="#bi"/><use transform="matrix(0.008680555555555556,0,0,0.008680555555555556,95.54687500000001,0)" xlink:href="#at"/><use transform="matrix(0.008680555555555556,0,0,0.008680555555555556,105.65104166666669,0)" xlink:href="#aG"/><use transform="matrix(0.008680555555555556,0,0,0.008680555555555556,121.42361111111113,0)" xlink:href="#aF"/><use transform="matrix(0.008680555555555556,0,0,0.008680555555555556,133.64583333333334,0)" xlink:href="#aF"/><use transform="matrix(0.008680555555555556,0,0,0.008680555555555556,145.86805555555557,0)" xlink:href="#as"/></g><g id="X"><use transform="matrix(0.008680555555555556,0,0,0.008680555555555556,0,0)" xlink:href="#aF"/><use transform="matrix(0.008680555555555556,0,0,0.008680555555555556,12.222222222222223,0)" xlink:href="#ap"/><use transform="matrix(0.008680555555555556,0,0,0.008680555555555556,23.79340277777778,0)" xlink:href="#at"/><use transform="matrix(0.008680555555555556,0,0,0.008680555555555556,33.89756944444444,0)" xlink:href="#aq"/><use transform="matrix(0.008680555555555556,0,0,0.008680555555555556,45.494791666666664,0)" xlink:href="#au"/><use transform="matrix(0.008680555555555556,0,0,0.008680555555555556,58.16840277777778,0)" xlink:href="#av"/><use transform="matrix(0.008680555555555556,0,0,0.008680555555555556,63.07291666666667,0)" xlink:href="#ax"/><use transform="matrix(0.008680555555555556,0,0,0.008680555555555556,73.4375,0)" xlink:href="#aF"/><use transform="matrix(0.008680555555555556,0,0,0.008680555555555556,85.65972222222223,0)" xlink:href="#ar"/><use transform="matrix(0.008680555555555556,0,0,0.008680555555555556,101.18055555555556,0)" xlink:href="#aI"/></g><g id="Y"><use transform="matrix(0.008680555555555556,0,0,0.008680555555555556,0,0)" xlink:href="#aB"/><use transform="matrix(0.008680555555555556,0,0,0.008680555555555556,10.946180555555555,0)" xlink:href="#aw"/><use transform="matrix(0.008680555555555556,0,0,0.008680555555555556,15.78125,0)" xlink:href="#aD"/><use transform="matrix(0.008680555555555556,0,0,0.008680555555555556,27.09201388888889,0)" xlink:href="#at"/><use transform="matrix(0.008680555555555556,0,0,0.008680555555555556,37.19618055555556,0)" xlink:href="#aB"/></g></defs></g></svg>