<svg xmlns="http://www.w3.org/2000/svg" xmlns:xlink="http://www.w3.org/1999/xlink" xmlns:lucid="lucid" width="737" height="302"><g transform="translate(1619 -618)" lucid:page-tab-id="0_0"><path d="M-1603.93 643.33a6 6 0 0 1 6-6h248a6 6 0 0 1 6 6V894a6 6 0 0 1-6 6h-248a6 6 0 0 1-6-6z" stroke="#5e5e5e" stroke-width="3" fill="#ffdda6"/><path d="M-1603.93 643.33a6 6 0 0 1 6-6h248a6 6 0 0 1 6 6V714a6 6 0 0 1-6 6h-248a6 6 0 0 1-6-6z" stroke="#000" stroke-opacity="0" stroke-width="3" fill-opacity="0"/><use xlink:href="#a" transform="matrix(1,0,0,1,-1598.925285100059,642.3333333333334) translate(15.234375000000085 32.02256944444443)"/><use xlink:href="#b" transform="matrix(1,0,0,1,-1598.925285100059,642.3333333333334) translate(118.70659722222221 32.02256944444443)"/><use xlink:href="#c" transform="matrix(1,0,0,1,-1598.925285100059,642.3333333333334) translate(166.40624999999997 32.02256944444443)"/><use xlink:href="#d" transform="matrix(1,0,0,1,-1598.925285100059,642.3333333333334) translate(85.7096354166667 58.06423611111107)"/><path d="M-1604.4 722.88h260.92" stroke="#5e5e5e" stroke-width="2" fill="none"/><path d="M-1604.38 723.88h-1.02v-2h1.02zM-1342.48 723.88h-1.02v-2h1.02z" stroke="#5e5e5e" stroke-width=".05" fill="#5e5e5e"/><path d="M-1158.52 646a6 6 0 0 1 6-6h248a6 6 0 0 1 6 6v250.67a6 6 0 0 1-6 6h-248a6 6 0 0 1-6-6z" stroke="#5e5e5e" stroke-width="3" fill="#ffdda6"/><path d="M-1158.52 728.67a6 6 0 0 1 6-6h248a6 6 0 0 1 6 6v168a6 6 0 0 1-6 6h-248a6 6 0 0 1-6-6z" stroke="#5e5e5e" stroke-width="3" fill="#fff"/><path d="M-1140 656a6 6 0 0 1 6-6h218a6 6 0 0 1 6 6v48a6 6 0 0 1-6 6h-218a6 6 0 0 1-6-6z" stroke="#000" stroke-opacity="0" stroke-width="3" fill-opacity="0"/><use xlink:href="#e" transform="matrix(1,0,0,1,-1135,655) translate(5.035807291666771 20.61631944444443)"/><use xlink:href="#f" transform="matrix(1,0,0,1,-1135,655) translate(110.244140625 20.61631944444443)"/><use xlink:href="#g" transform="matrix(1,0,0,1,-1135,655) translate(58.77387152777782 46.65798611111107)"/><use xlink:href="#h" transform="matrix(1,0,0,1,-1135,655) translate(82.64539930555557 46.65798611111107)"/><path d="M-1331.22 768.67a6 6 0 0 1 6-6h112a6 6 0 0 0 6-6v-8a2.3 2.3 0 0 1 4-1.54l27.98 31.08a6.67 6.67 0 0 1 0 8.93l-27.97 31.08a2.3 2.3 0 0 1-4.02-1.53v-8a6 6 0 0 0-6-6h-112a6 6 0 0 1-6-6z" stroke="#5e5e5e" stroke-width="3" fill="#ffdda6"/><path d="M-1603.93 726a6 6 0 0 1 6-6h248a6 6 0 0 1 6 6v168a6 6 0 0 1-6 6h-248a6 6 0 0 1-6-6z" stroke="#5e5e5e" stroke-width="3" fill="#fff"/><path d="M-1599.3 726a6 6 0 0 1 6-6h238.75a6 6 0 0 1 6 6v168a6 6 0 0 1-6 6h-238.75a6 6 0 0 1-6-6z" stroke="#000" stroke-opacity="0" stroke-width="3" fill="#fff" fill-opacity="0"/><g><use xlink:href="#i" transform="matrix(1,0,0,1,-1594.2959758833629,725) translate(34.7187500000001 41.74305555555556)"/><use xlink:href="#j" transform="matrix(1,0,0,1,-1594.2959758833629,725) translate(176.17708333333326 41.74305555555556)"/><use xlink:href="#k" transform="matrix(1,0,0,1,-1594.2959758833629,725) translate(18.368923611111228 66.57638888888887)"/><use xlink:href="#j" transform="matrix(1,0,0,1,-1594.2959758833629,725) translate(192.52690972222214 66.57638888888887)"/><use xlink:href="#l" transform="matrix(1,0,0,1,-1594.2959758833629,725) translate(35.291666666666785 91.40972222222217)"/><use xlink:href="#m" transform="matrix(1,0,0,1,-1594.2959758833629,725) translate(172.26215277777771 91.40972222222217)"/><use xlink:href="#n" transform="matrix(1,0,0,1,-1594.2959758833629,725) translate(9.5494791666668 116.24305555555549)"/><use xlink:href="#m" transform="matrix(1,0,0,1,-1594.2959758833629,725) translate(198.0043402777777 116.24305555555549)"/><use xlink:href="#o" transform="matrix(1,0,0,1,-1594.2959758833629,725) translate(43.61197916666676 141.0763888888888)"/><use xlink:href="#p" transform="matrix(1,0,0,1,-1594.2959758833629,725) translate(167.2838541666666 141.0763888888888)"/></g><path d="M-1158.52 728.67a6 6 0 0 1 6-6h248a6 6 0 0 1 6 6v168a6 6 0 0 1-6 6h-248a6 6 0 0 1-6-6z" stroke="#000" stroke-opacity="0" stroke-width="3" fill-opacity="0"/><g><use xlink:href="#q" transform="matrix(1,0,0,1,-1153.5243216733484,727.6666666666666) translate(21.515625 29.972671555555557)"/><use xlink:href="#r" transform="matrix(1,0,0,1,-1153.5243216733484,727.6666666666666) translate(83.40798611111111 29.972671555555557)"/><use xlink:href="#s" transform="matrix(1,0,0,1,-1153.5243216733484,727.6666666666666) translate(137.62673611111111 29.972671555555557)"/><use xlink:href="#t" transform="matrix(1,0,0,1,-1153.5243216733484,727.6666666666666) translate(180.59548611111111 29.972671555555557)"/><use xlink:href="#u" transform="matrix(1,0,0,1,-1153.5243216733484,727.6666666666666) translate(55.994791666666686 53.80600488888888)"/><use xlink:href="#v" transform="matrix(1,0,0,1,-1153.5243216733484,727.6666666666666) translate(119.99652777777779 53.80600488888888)"/><use xlink:href="#w" transform="matrix(1,0,0,1,-1153.5243216733484,727.6666666666666) translate(156.59375 53.80600488888888)"/><use xlink:href="#x" transform="matrix(1,0,0,1,-1153.5243216733484,727.6666666666666) translate(50.27430555555557 77.63933822222221)"/><use xlink:href="#y" transform="matrix(1,0,0,1,-1153.5243216733484,727.6666666666666) translate(85.10069444444446 77.63933822222221)"/><use xlink:href="#z" transform="matrix(1,0,0,1,-1153.5243216733484,727.6666666666666) translate(152.56597222222223 77.63933822222221)"/><use xlink:href="#A" transform="matrix(1,0,0,1,-1153.5243216733484,727.6666666666666) translate(35.74739583333334 101.47267155555555)"/><use xlink:href="#B" transform="matrix(1,0,0,1,-1153.5243216733484,727.6666666666666) translate(84.00260416666667 101.47267155555555)"/><use xlink:href="#C" transform="matrix(1,0,0,1,-1153.5243216733484,727.6666666666666) translate(117.90885416666666 101.47267155555555)"/><use xlink:href="#D" transform="matrix(1,0,0,1,-1153.5243216733484,727.6666666666666) translate(151.77170138888886 101.47267155555555)"/><use xlink:href="#E" transform="matrix(1,0,0,1,-1153.5243216733484,727.6666666666666) translate(22.81770833333337 125.30600488888888)"/><use xlink:href="#F" transform="matrix(1,0,0,1,-1153.5243216733484,727.6666666666666) translate(162.36631944444443 125.30600488888888)"/><use xlink:href="#G" transform="matrix(1,0,0,1,-1153.5243216733484,727.6666666666666) translate(40.44791666666667 149.1393382222222)"/><use xlink:href="#H" transform="matrix(1,0,0,1,-1153.5243216733484,727.6666666666666) translate(73.46875 149.1393382222222)"/><use xlink:href="#I" transform="matrix(1,0,0,1,-1153.5243216733484,727.6666666666666) translate(93.34722222222223 149.1393382222222)"/><use xlink:href="#J" transform="matrix(1,0,0,1,-1153.5243216733484,727.6666666666666) translate(117.22743055555556 149.1393382222222)"/><use xlink:href="#K" transform="matrix(1,0,0,1,-1153.5243216733484,727.6666666666666) translate(125.5 169.9726715555555)"/></g><defs><path fill="#5e5e5e" d="M430-241h637V0H130v-1456h300v1215" id="L"/><path fill="#5e5e5e" d="M579 20C257 20 58-214 66-551c8-331 182-551 511-551 324 0 514 231 514 572 0 319-198 550-512 550zm-2-888c-169 0-222 141-222 338 0 181 61 317 224 317 170 0 223-137 223-338 0-178-64-317-225-317" id="M"/><path fill="#5e5e5e" d="M355-556c-2 203 30 338 206 343 102 3 181-63 182-161h271C1001-128 821 17 566 20 242 24 66-212 66-554c0-320 184-548 498-548 262 0 451 167 450 423H743c-1-108-75-193-184-189-162 6-202 123-204 312" id="N"/><path fill="#5e5e5e" d="M552-1102c254-4 435 134 435 383v469c1 103 15 180 43 233V0H738c-13-26-23-58-29-97C639-19 548 20 436 20 238 20 64-113 68-304c5-258 212-357 496-357h133c11-137-29-227-160-227-90 0-156 45-156 131H92c15-231 213-342 460-345zM357-325c0 76 61 124 142 124 88 0 168-45 198-105v-186H589c-152 2-232 51-232 167" id="O"/><path fill="#5e5e5e" d="M457-330c2 83 25 111 111 112 32 0 60-2 85-7V-6c-57 17-115 26-175 26-203 0-310-102-310-307v-583H10v-212h158v-266h289v266h185v212H457v540" id="P"/><path fill="#5e5e5e" d="M416 0H126v-1082h290V0zM271-1212c-92 0-162-61-162-150s68-149 162-149c93 0 162 60 162 149s-70 150-162 150" id="Q"/><path fill="#5e5e5e" d="M750-692c-1-124-48-174-173-175-81 0-142 35-183 104V0H105v-1082h272l9 125c77-97 181-145 311-145 244 0 342 151 342 403V0H750v-692" id="R"/><path fill="#5e5e5e" d="M529-185c94 0 168-33 168-114 0-35-18-63-53-83s-91-39-168-55C219-491 90-600 90-765c0-208 203-337 432-337 246 0 451 124 453 349H686c-2-91-62-143-165-143-86 0-151 41-153 117 0 32 16 57 46 77 63 43 257 69 335 100 151 60 229 153 229 291C978-13 554 93 282-28 162-81 60-190 56-344h274c5 106 86 159 199 159" id="S"/><g id="a"><use transform="matrix(0.010850694444444435,0,0,0.010850694444444435,0,0)" xlink:href="#L"/><use transform="matrix(0.010850694444444435,0,0,0.010850694444444435,12.033420138888879,0)" xlink:href="#M"/><use transform="matrix(0.010850694444444435,0,0,0.010850694444444435,24.598524305555536,0)" xlink:href="#N"/><use transform="matrix(0.010850694444444435,0,0,0.010850694444444435,36.18706597222219,0)" xlink:href="#O"/><use transform="matrix(0.010850694444444435,0,0,0.010850694444444435,48.10112847222218,0)" xlink:href="#P"/><use transform="matrix(0.010850694444444435,0,0,0.010850694444444435,55.60980902777773,0)" xlink:href="#Q"/><use transform="matrix(0.010850694444444435,0,0,0.010850694444444435,61.50173611111106,0)" xlink:href="#M"/><use transform="matrix(0.010850694444444435,0,0,0.010850694444444435,74.06684027777771,0)" xlink:href="#R"/><use transform="matrix(0.010850694444444435,0,0,0.010850694444444435,86.51258680555549,0)" xlink:href="#S"/></g><path fill="#5e5e5e" d="M1052-393l142-689h279L1197 0H955L750-681 545 0H304L28-1082h279l141 688 198-688h209" id="T"/><path fill="#5e5e5e" d="M750-685c-1-124-48-182-173-182-85 0-146 33-184 98V0H104v-1536h289v572c77-92 173-138 289-138 235 0 357 136 357 409V0H750v-685" id="U"/><g id="b"><use transform="matrix(0.010850694444444435,0,0,0.010850694444444435,0,0)" xlink:href="#T"/><use transform="matrix(0.010850694444444435,0,0,0.010850694444444435,16.330295138888875,0)" xlink:href="#Q"/><use transform="matrix(0.010850694444444435,0,0,0.010850694444444435,22.222222222222204,0)" xlink:href="#P"/><use transform="matrix(0.010850694444444435,0,0,0.010850694444444435,29.730902777777754,0)" xlink:href="#U"/></g><path fill="#5e5e5e" d="M741-689c-2-124-40-177-163-178-82 0-141 34-178 102V0H111v-1082h271l9 121c77-94 180-141 311-141 139 0 235 55 287 165 76-110 184-165 325-165 249 0 348 151 348 411V0h-290v-690c-2-123-39-176-163-177-87 0-147 41-180 124l1 743H741v-689" id="V"/><path fill="#5e5e5e" d="M416 0H126v-1536h290V0" id="W"/><path fill="#5e5e5e" d="M719-811c-143-24-279 1-319 103V0H111v-1082h273l8 129c74-124 180-175 331-136" id="X"/><g id="c"><use transform="matrix(0.010850694444444435,0,0,0.010850694444444435,0,0)" xlink:href="#S"/><use transform="matrix(0.010850694444444435,0,0,0.010850694444444435,11.425781249999991,0)" xlink:href="#Q"/><use transform="matrix(0.010850694444444435,0,0,0.010850694444444435,17.31770833333332,0)" xlink:href="#V"/><use transform="matrix(0.010850694444444435,0,0,0.010850694444444435,36.5559895833333,0)" xlink:href="#Q"/><use transform="matrix(0.010850694444444435,0,0,0.010850694444444435,42.44791666666663,0)" xlink:href="#W"/><use transform="matrix(0.010850694444444435,0,0,0.010850694444444435,48.33984374999996,0)" xlink:href="#O"/><use transform="matrix(0.010850694444444435,0,0,0.010850694444444435,60.25390624999994,0)" xlink:href="#X"/></g><path fill="#5e5e5e" d="M1031-175C952-60 797 20 609 20 287 20 60-206 72-543c12-330 180-559 505-559 309 0 482 214 477 537v118H365c15 134 115 234 263 234 111 0 198-40 261-121zM770-644c5-139-62-226-194-224-130 1-191 97-208 224h402" id="Y"/><g id="d"><use transform="matrix(0.010850694444444435,0,0,0.010850694444444435,0,0)" xlink:href="#N"/><use transform="matrix(0.010850694444444435,0,0,0.010850694444444435,11.588541666666657,0)" xlink:href="#X"/><use transform="matrix(0.010850694444444435,0,0,0.010850694444444435,19.368489583333318,0)" xlink:href="#O"/><use transform="matrix(0.010850694444444435,0,0,0.010850694444444435,31.282552083333307,0)" xlink:href="#S"/><use transform="matrix(0.010850694444444435,0,0,0.010850694444444435,42.7083333333333,0)" xlink:href="#U"/><use transform="matrix(0.010850694444444435,0,0,0.010850694444444435,55.14322916666662,0)" xlink:href="#Y"/><use transform="matrix(0.010850694444444435,0,0,0.010850694444444435,67.15494791666661,0)" xlink:href="#S"/></g><path fill="#5e5e5e" d="M952-300H426L326 0H7l542-1456h278L1372 0h-319zM507-543h364l-183-545" id="Z"/><path fill="#5e5e5e" d="M663-1102c295 0 423 246 423 571 0 313-131 551-421 551-117 0-211-45-281-135L371 0H111v-1536h289v551c67-78 154-117 263-117zm-71 889c164 0 209-139 205-339-3-189-44-315-207-315-92 0-155 38-190 113v427c35 76 99 114 192 114" id="aa"/><path fill="#5e5e5e" d="M463 20c-241-1-359-147-359-393v-709h289v699c0 113 51 169 154 169 98 0 165-34 202-102v-766h290V0H767l-8-110C688-23 589 20 463 20" id="ab"/><g id="e"><use transform="matrix(0.010850694444444435,0,0,0.010850694444444435,0,0)" xlink:href="#Z"/><use transform="matrix(0.010850694444444435,0,0,0.010850694444444435,14.767795138888877,0)" xlink:href="#P"/><use transform="matrix(0.010850694444444435,0,0,0.010850694444444435,22.276475694444425,0)" xlink:href="#P"/><use transform="matrix(0.010850694444444435,0,0,0.010850694444444435,29.785156249999975,0)" xlink:href="#X"/><use transform="matrix(0.010850694444444435,0,0,0.010850694444444435,37.89062499999997,0)" xlink:href="#Q"/><use transform="matrix(0.010850694444444435,0,0,0.010850694444444435,43.7825520833333,0)" xlink:href="#aa"/><use transform="matrix(0.010850694444444435,0,0,0.010850694444444435,56.29340277777774,0)" xlink:href="#ab"/><use transform="matrix(0.010850694444444435,0,0,0.010850694444444435,68.72829861111106,0)" xlink:href="#P"/><use transform="matrix(0.010850694444444435,0,0,0.010850694444444435,76.2369791666666,0)" xlink:href="#Y"/><use transform="matrix(0.010850694444444435,0,0,0.010850694444444435,88.24869791666659,0)" xlink:href="#S"/></g><g id="f"><use transform="matrix(0.010850694444444435,0,0,0.010850694444444435,0,0)" xlink:href="#N"/><use transform="matrix(0.010850694444444435,0,0,0.010850694444444435,11.588541666666657,0)" xlink:href="#M"/><use transform="matrix(0.010850694444444435,0,0,0.010850694444444435,24.153645833333314,0)" xlink:href="#R"/><use transform="matrix(0.010850694444444435,0,0,0.010850694444444435,36.599392361111086,0)" xlink:href="#S"/><use transform="matrix(0.010850694444444435,0,0,0.010850694444444435,48.02517361111108,0)" xlink:href="#Q"/><use transform="matrix(0.010850694444444435,0,0,0.010850694444444435,53.91710069444441,0)" xlink:href="#S"/><use transform="matrix(0.010850694444444435,0,0,0.010850694444444435,65.3428819444444,0)" xlink:href="#P"/><use transform="matrix(0.010850694444444435,0,0,0.010850694444444435,72.85156249999994,0)" xlink:href="#O"/><use transform="matrix(0.010850694444444435,0,0,0.010850694444444435,84.76562499999993,0)" xlink:href="#R"/><use transform="matrix(0.010850694444444435,0,0,0.010850694444444435,97.2113715277777,0)" xlink:href="#P"/></g><g id="g"><use transform="matrix(0.010850694444444435,0,0,0.010850694444444435,0,0)" xlink:href="#Q"/><use transform="matrix(0.010850694444444435,0,0,0.010850694444444435,5.891927083333329,0)" xlink:href="#R"/></g><g id="h"><use transform="matrix(0.010850694444444435,0,0,0.010850694444444435,0,0)" xlink:href="#N"/><use transform="matrix(0.010850694444444435,0,0,0.010850694444444435,11.588541666666657,0)" xlink:href="#X"/><use transform="matrix(0.010850694444444435,0,0,0.010850694444444435,19.368489583333318,0)" xlink:href="#O"/><use transform="matrix(0.010850694444444435,0,0,0.010850694444444435,31.282552083333307,0)" xlink:href="#S"/><use transform="matrix(0.010850694444444435,0,0,0.010850694444444435,42.7083333333333,0)" xlink:href="#U"/><use transform="matrix(0.010850694444444435,0,0,0.010850694444444435,55.14322916666662,0)" xlink:href="#Y"/><use transform="matrix(0.010850694444444435,0,0,0.010850694444444435,67.15494791666661,0)" xlink:href="#S"/></g><path fill="#5e5e5e" d="M688-137c238 0 323-102 359-325h193c-32 297-228 482-552 482-361 0-569-299-569-680 0-197 8-360 73-497 88-186 257-317 513-319 316-2 509 195 535 488h-193c-31-212-118-330-342-330-272 0-397 224-393 523v141c-3 282 115 517 376 517" id="ac"/><path fill="#5e5e5e" d="M561-1102c238-4 403 126 403 351v498c0 99 13 178 38 237V0H808c-11-21-19-59-26-114C696-25 593 20 474 20c-199 0-368-130-365-320 4-251 214-359 490-356h180v-85c-1-135-86-212-229-212-115 0-232 67-233 171H131c20-205 206-316 430-320zM294-326c0 117 90 185 207 185 122 0 239-75 278-162v-222H634c-227 0-340 66-340 199" id="ad"/><path fill="#5e5e5e" d="M1240-945c-141 0-250 95-250 227V0H804v-709c0-157-77-236-231-236-121 0-204 52-249 155V0H139v-1082h175l5 120c79-93 186-140 321-140 151 0 254 58 309 174 69-98 181-174 345-174 237 0 362 126 362 377V0h-185v-714c-2-159-67-231-231-231" id="ae"/><path fill="#5e5e5e" d="M520 20C244 20 95-247 95-550c0-298 151-550 427-552 127 0 227 43 301 130v-564h185V0H838l-9-116C755-25 652 20 520 20zm48-965c-210 0-288 177-288 416 0 218 87 392 286 392 117 0 203-53 257-158v-497c-55-102-140-153-255-153" id="af"/><path fill="#5e5e5e" d="M599-131c141 0 220-65 285-146l113 88C906-50 770 20 589 20 281 21 93-214 93-545c0-223 93-397 233-485 74-48 154-72 240-72 300 2 449 218 445 537v77H278c0 197 129 357 321 357zm227-509c-3-180-88-310-260-310-170 0-264 140-282 310h542" id="ag"/><path fill="#5e5e5e" d="M589-945c-131 0-219 81-264 174V0H140v-1082h175l6 136c83-104 191-156 324-156 229 0 346 129 346 387V0H806v-716c-2-153-65-229-217-229" id="ah"/><path fill="#5e5e5e" d="M525-543H37v-151h488v151" id="ai"/><g id="i"><use transform="matrix(0.008680555555555556,0,0,0.008680555555555556,0,0)" xlink:href="#ac"/><use transform="matrix(0.008680555555555546,0,0,0.008680555555555546,11.571180555555555,0)" xlink:href="#ad"/><use transform="matrix(0.008680555555555546,0,0,0.008680555555555546,21.241319444444432,0)" xlink:href="#ae"/><use transform="matrix(0.008680555555555546,0,0,0.008680555555555546,36.82291666666663,0)" xlink:href="#af"/><use transform="matrix(0.008680555555555546,0,0,0.008680555555555546,46.84895833333329,0)" xlink:href="#ag"/><use transform="matrix(0.008680555555555546,0,0,0.008680555555555546,56.26736111111106,0)" xlink:href="#ah"/><use transform="matrix(0.008680555555555546,0,0,0.008680555555555546,66.07638888888883,0)" xlink:href="#ai"/><use transform="matrix(0.008680555555555546,0,0,0.008680555555555546,70.98090277777771,0)" xlink:href="#ac"/><use transform="matrix(0.008680555555555546,0,0,0.008680555555555546,82.55208333333326,0)" xlink:href="#ad"/><use transform="matrix(0.008680555555555546,0,0,0.008680555555555546,92.22222222222213,0)" xlink:href="#ae"/><use transform="matrix(0.008680555555555546,0,0,0.008680555555555546,107.80381944444433,0)" xlink:href="#af"/><use transform="matrix(0.008680555555555546,0,0,0.008680555555555546,117.82986111111099,0)" xlink:href="#ag"/><use transform="matrix(0.008680555555555546,0,0,0.008680555555555546,127.24826388888876,0)" xlink:href="#ah"/></g><path fill="#5e5e5e" d="M341 0H156v-1082h185V0zm-91-1264c-68 0-108-42-109-105 0-62 41-107 109-107s110 44 110 107-42 105-110 105" id="aj"/><path fill="#5e5e5e" d="M456 20C285 20 205-92 206-268v-671H9v-143h197v-262h185v262h202v143H391v671c-9 125 92 149 207 118V0c-49 13-96 20-142 20" id="ak"/><path fill="#5e5e5e" d="M494-271l252-811h198L509 167C425 381 299 474 84 421V271c167 16 242-37 283-173l41-110L22-1082h202" id="al"/><g id="j"><use transform="matrix(0.008680555555555546,0,0,0.008680555555555546,0,0)" xlink:href="#ac"/><use transform="matrix(0.008680555555555546,0,0,0.008680555555555546,11.571180555555543,0)" xlink:href="#aj"/><use transform="matrix(0.008680555555555546,0,0,0.008680555555555546,15.88541666666665,0)" xlink:href="#ak"/><use transform="matrix(0.008680555555555546,0,0,0.008680555555555546,21.69270833333331,0)" xlink:href="#al"/></g><path fill="#5e5e5e" d="M491 20c-241-1-355-148-355-398v-704h185v699c0 164 67 246 200 246 141 0 235-53 282-158v-787h185V0H812l-4-107C736-22 630 20 491 20" id="am"/><path fill="#5e5e5e" d="M634-1102c292 0 422 254 422 573 0 298-143 547-420 549-137 0-242-48-317-145L310 0H140v-1536h185v573c75-93 178-139 309-139zm-44 965c207 0 281-175 281-413 0-224-79-395-283-395-122 0-210 57-263 170v468c57 113 145 170 265 170" id="an"/><path fill="#5e5e5e" d="M663-916c-163-27-288 18-338 148V0H140v-1082h180l3 125c61-97 147-145 258-145 36 0 63 5 82 14v172" id="ao"/><path fill="#5e5e5e" d="M341 0H156v-1536h185V0" id="ap"/><path fill="#5e5e5e" d="M651-255l416-1201h210L737 0H567L28-1456h209" id="aq"/><g id="k"><use transform="matrix(0.008680555555555546,0,0,0.008680555555555546,0,0)" xlink:href="#ac"/><use transform="matrix(0.008680555555555546,0,0,0.008680555555555546,11.571180555555543,0)" xlink:href="#am"/><use transform="matrix(0.008680555555555546,0,0,0.008680555555555546,21.371527777777754,0)" xlink:href="#ae"/><use transform="matrix(0.008680555555555546,0,0,0.008680555555555546,36.95312499999996,0)" xlink:href="#an"/><use transform="matrix(0.008680555555555546,0,0,0.008680555555555546,46.92708333333328,0)" xlink:href="#ag"/><use transform="matrix(0.008680555555555546,0,0,0.008680555555555546,56.34548611111104,0)" xlink:href="#ao"/><use transform="matrix(0.008680555555555546,0,0,0.008680555555555546,62.361111111111036,0)" xlink:href="#ap"/><use transform="matrix(0.008680555555555546,0,0,0.008680555555555546,66.67534722222214,0)" xlink:href="#ad"/><use transform="matrix(0.008680555555555546,0,0,0.008680555555555546,76.345486111111,0)" xlink:href="#ah"/><use transform="matrix(0.008680555555555546,0,0,0.008680555555555546,86.15451388888879,0)" xlink:href="#af"/><use transform="matrix(0.008680555555555546,0,0,0.008680555555555546,96.18055555555544,0)" xlink:href="#ai"/><use transform="matrix(0.008680555555555546,0,0,0.008680555555555546,101.08506944444433,0)" xlink:href="#aq"/><use transform="matrix(0.008680555555555546,0,0,0.008680555555555546,112.3958333333332,0)" xlink:href="#aj"/><use transform="matrix(0.008680555555555546,0,0,0.008680555555555546,116.7100694444443,0)" xlink:href="#ah"/><use transform="matrix(0.008680555555555546,0,0,0.008680555555555546,126.51909722222207,0)" xlink:href="#ag"/><use transform="matrix(0.008680555555555546,0,0,0.008680555555555546,135.93749999999983,0)" xlink:href="#ap"/><use transform="matrix(0.008680555555555546,0,0,0.008680555555555546,140.25173611111094,0)" xlink:href="#ad"/><use transform="matrix(0.008680555555555546,0,0,0.008680555555555546,149.92187499999983,0)" xlink:href="#ah"/><use transform="matrix(0.008680555555555546,0,0,0.008680555555555546,159.7309027777776,0)" xlink:href="#af"/></g><path fill="#5e5e5e" d="M417-1456L893-268l476-1188h249V0h-192c-4-403 4-794 18-1179L966 0H819L342-1176c15 384 23 773 19 1176H169v-1456h248" id="ar"/><path fill="#5e5e5e" d="M277-555c0 244 77 420 297 424 127 2 249-93 255-210h175C980-127 805 20 574 20 258 20 81-222 92-562c11-319 164-533 481-540 237-5 426 165 431 392H829c-7-133-115-242-256-240-209 4-296 166-296 395" id="as"/><path fill="#5e5e5e" d="M1288 0h-193v-673H361V0H169v-1456h192v626h734v-626h193V0" id="at"/><path fill="#5e5e5e" d="M584 20C278 26 81-227 91-551c10-320 175-545 491-551 308-5 503 247 494 573-9 322-175 543-492 549zm-2-970c-208 0-305 185-305 421 0 216 106 398 307 398 211 0 307-186 307-420 0-214-109-399-309-399" id="au"/><g id="l"><use transform="matrix(0.008680555555555546,0,0,0.008680555555555546,0,0)" xlink:href="#ar"/><use transform="matrix(0.008680555555555546,0,0,0.008680555555555546,15.520833333333316,0)" xlink:href="#ag"/><use transform="matrix(0.008680555555555546,0,0,0.008680555555555546,24.939236111111082,0)" xlink:href="#ao"/><use transform="matrix(0.008680555555555546,0,0,0.008680555555555546,30.78993055555552,0)" xlink:href="#as"/><use transform="matrix(0.008680555555555546,0,0,0.008680555555555546,40.095486111111065,0)" xlink:href="#ag"/><use transform="matrix(0.008680555555555546,0,0,0.008680555555555546,49.51388888888883,0)" xlink:href="#ao"/><use transform="matrix(0.008680555555555546,0,0,0.008680555555555546,55.52951388888882,0)" xlink:href="#ai"/><use transform="matrix(0.008680555555555546,0,0,0.008680555555555546,60.43402777777771,0)" xlink:href="#at"/><use transform="matrix(0.008680555555555546,0,0,0.008680555555555546,73.1076388888888,0)" xlink:href="#ad"/><use transform="matrix(0.008680555555555546,0,0,0.008680555555555546,82.77777777777767,0)" xlink:href="#ae"/><use transform="matrix(0.008680555555555546,0,0,0.008680555555555546,98.35937499999987,0)" xlink:href="#aj"/><use transform="matrix(0.008680555555555546,0,0,0.008680555555555546,102.67361111111097,0)" xlink:href="#ap"/><use transform="matrix(0.008680555555555546,0,0,0.008680555555555546,106.98784722222207,0)" xlink:href="#ak"/><use transform="matrix(0.008680555555555546,0,0,0.008680555555555546,112.62152777777762,0)" xlink:href="#au"/><use transform="matrix(0.008680555555555546,0,0,0.008680555555555546,122.76041666666649,0)" xlink:href="#ah"/></g><path fill="#5e5e5e" d="M1175-1298H707V0H516v-1298H49v-158h1126v158" id="av"/><path fill="#5e5e5e" d="M1098-255l208-827h185L1176 0h-150L763-820 507 0H357L43-1082h184l213 810 252-810h149" id="aw"/><path fill="#5e5e5e" d="M632-1102c291 0 422 251 422 573 0 297-141 548-419 549-131 0-235-42-310-125v521H140v-1498h169l9 120c75-93 180-140 314-140zm-53 971c207 0 290-180 290-419 0-218-92-395-292-395-112 0-196 50-252 149v517c55 99 140 148 254 148" id="ax"/><g id="m"><use transform="matrix(0.008680555555555546,0,0,0.008680555555555546,0,0)" xlink:href="#av"/><use transform="matrix(0.008680555555555546,0,0,0.008680555555555546,10.11284722222221,0)" xlink:href="#aw"/><use transform="matrix(0.008680555555555546,0,0,0.008680555555555546,23.47222222222219,0)" xlink:href="#ax"/></g><path fill="#5e5e5e" d="M589-945c-131 0-219 81-264 174V0H140v-1536h185v585c82-101 189-151 320-151 229 0 346 129 346 387V0H806v-716c-2-153-65-229-217-229" id="ay"/><g id="n"><use transform="matrix(0.008680555555555546,0,0,0.008680555555555546,0,0)" xlink:href="#ar"/><use transform="matrix(0.008680555555555546,0,0,0.008680555555555546,15.520833333333316,0)" xlink:href="#au"/><use transform="matrix(0.008680555555555546,0,0,0.008680555555555546,25.659722222222193,0)" xlink:href="#ah"/><use transform="matrix(0.008680555555555546,0,0,0.008680555555555546,35.46874999999996,0)" xlink:href="#ae"/><use transform="matrix(0.008680555555555546,0,0,0.008680555555555546,51.05034722222216,0)" xlink:href="#au"/><use transform="matrix(0.008680555555555546,0,0,0.008680555555555546,61.189236111111036,0)" xlink:href="#am"/><use transform="matrix(0.008680555555555546,0,0,0.008680555555555546,70.98958333333324,0)" xlink:href="#ak"/><use transform="matrix(0.008680555555555546,0,0,0.008680555555555546,76.7968749999999,0)" xlink:href="#ay"/><use transform="matrix(0.008680555555555546,0,0,0.008680555555555546,86.58854166666656,0)" xlink:href="#ai"/><use transform="matrix(0.008680555555555546,0,0,0.008680555555555546,91.49305555555544,0)" xlink:href="#ar"/><use transform="matrix(0.008680555555555546,0,0,0.008680555555555546,107.01388888888877,0)" xlink:href="#aj"/><use transform="matrix(0.008680555555555546,0,0,0.008680555555555546,111.32812499999986,0)" xlink:href="#af"/><use transform="matrix(0.008680555555555546,0,0,0.008680555555555546,121.35416666666652,0)" xlink:href="#af"/><use transform="matrix(0.008680555555555546,0,0,0.008680555555555546,131.38020833333317,0)" xlink:href="#ap"/><use transform="matrix(0.008680555555555546,0,0,0.008680555555555546,135.6944444444443,0)" xlink:href="#ag"/><use transform="matrix(0.008680555555555546,0,0,0.008680555555555546,145.11284722222206,0)" xlink:href="#ak"/><use transform="matrix(0.008680555555555546,0,0,0.008680555555555546,150.7465277777776,0)" xlink:href="#au"/><use transform="matrix(0.008680555555555546,0,0,0.008680555555555546,160.8854166666665,0)" xlink:href="#aw"/><use transform="matrix(0.008680555555555546,0,0,0.008680555555555546,174.24479166666646,0)" xlink:href="#ah"/></g><path fill="#5e5e5e" d="M1216-1011c-1 297-202 441-512 441H361V0H169v-1456h537c297-6 510 164 510 445zm-192 2c1-178-126-288-307-289H361v571h345c196 1 318-92 318-282" id="az"/><path fill="#5e5e5e" d="M538-131c121 0 232-49 232-156 0-50-20-88-56-117-73-60-334-92-420-143-92-55-162-110-162-238 0-190 192-317 400-317 223 0 414 129 413 338H759c0-108-110-186-227-186-119 0-215 53-215 159 0 45 18 78 53 101 76 52 331 90 416 139 98 57 169 115 169 251C955-92 760 20 538 20c-176 0-314-68-386-174-38-55-57-115-57-179h185c6 129 116 202 258 202" id="aA"/><path fill="#5e5e5e" d="M704-1390c-164-38-297 28-288 194v114h231v143H416V0H231v-939H60v-143h171v-111c-12-274 208-416 483-347" id="aB"/><g id="o"><use transform="matrix(0.008680555555555546,0,0,0.008680555555555546,0,0)" xlink:href="#az"/><use transform="matrix(0.008680555555555546,0,0,0.008680555555555546,11.119791666666654,0)" xlink:href="#ad"/><use transform="matrix(0.008680555555555546,0,0,0.008680555555555546,20.78993055555553,0)" xlink:href="#aA"/><use transform="matrix(0.008680555555555546,0,0,0.008680555555555546,29.956597222222186,0)" xlink:href="#aA"/><use transform="matrix(0.008680555555555546,0,0,0.008680555555555546,39.12326388888884,0)" xlink:href="#ad"/><use transform="matrix(0.008680555555555546,0,0,0.008680555555555546,48.79340277777772,0)" xlink:href="#aj"/><use transform="matrix(0.008680555555555546,0,0,0.008680555555555546,53.10763888888883,0)" xlink:href="#as"/><use transform="matrix(0.008680555555555546,0,0,0.008680555555555546,62.41319444444437,0)" xlink:href="#ai"/><use transform="matrix(0.008680555555555546,0,0,0.008680555555555546,67.31770833333326,0)" xlink:href="#ac"/><use transform="matrix(0.008680555555555546,0,0,0.008680555555555546,78.8888888888888,0)" xlink:href="#ap"/><use transform="matrix(0.008680555555555546,0,0,0.008680555555555546,83.2031249999999,0)" xlink:href="#aj"/><use transform="matrix(0.008680555555555546,0,0,0.008680555555555546,87.517361111111,0)" xlink:href="#aB"/><use transform="matrix(0.008680555555555546,0,0,0.008680555555555546,93.689236111111,0)" xlink:href="#ak"/><use transform="matrix(0.008680555555555546,0,0,0.008680555555555546,99.32291666666653,0)" xlink:href="#au"/><use transform="matrix(0.008680555555555546,0,0,0.008680555555555546,109.46180555555542,0)" xlink:href="#ah"/></g><g id="p"><use transform="matrix(0.008680555555555546,0,0,0.008680555555555546,0,0)" xlink:href="#ac"/><use transform="matrix(0.008680555555555546,0,0,0.008680555555555546,11.571180555555543,0)" xlink:href="#aj"/><use transform="matrix(0.008680555555555546,0,0,0.008680555555555546,15.88541666666665,0)" xlink:href="#ak"/><use transform="matrix(0.008680555555555546,0,0,0.008680555555555546,21.69270833333331,0)" xlink:href="#al"/></g><g id="q"><use transform="matrix(0.008680555555555554,0,0,0.008680555555555554,0,0)" xlink:href="#aq"/><use transform="matrix(0.008680555555555554,0,0,0.008680555555555554,10.928819444444443,0)" xlink:href="#ag"/><use transform="matrix(0.008680555555555554,0,0,0.008680555555555554,20.34722222222222,0)" xlink:href="#ay"/><use transform="matrix(0.008680555555555554,0,0,0.008680555555555554,30.138888888888886,0)" xlink:href="#aj"/><use transform="matrix(0.008680555555555554,0,0,0.008680555555555554,34.453125,0)" xlink:href="#as"/><use transform="matrix(0.008680555555555554,0,0,0.008680555555555554,43.75868055555556,0)" xlink:href="#ap"/><use transform="matrix(0.008680555555555554,0,0,0.008680555555555554,48.07291666666668,0)" xlink:href="#ag"/></g><path fill="#5e5e5e" d="M521 20C240 20 96-239 96-550c0-303 147-552 427-552 132 0 235 47 309 140l9-120h169V-26c4 277-183 454-459 452-165-1-334-81-400-187l96-111c79 98 176 147 291 147 180 1 288-109 286-290v-93C750-23 649 20 521 20zm48-965c-209 0-287 178-287 416 0 217 86 392 285 392 117 0 202-53 257-159v-494c-57-103-142-155-255-155" id="aC"/><g id="r"><use transform="matrix(0.008680555555555554,0,0,0.008680555555555554,0,0)" xlink:href="#ay"/><use transform="matrix(0.008680555555555554,0,0,0.008680555555555554,9.791666666666664,0)" xlink:href="#aj"/><use transform="matrix(0.008680555555555554,0,0,0.008680555555555554,14.105902777777775,0)" xlink:href="#ak"/><use transform="matrix(0.008680555555555554,0,0,0.008680555555555554,19.913194444444443,0)" xlink:href="#ak"/><use transform="matrix(0.008680555555555554,0,0,0.008680555555555554,25.720486111111107,0)" xlink:href="#aj"/><use transform="matrix(0.008680555555555554,0,0,0.008680555555555554,30.034722222222218,0)" xlink:href="#ah"/><use transform="matrix(0.008680555555555554,0,0,0.008680555555555554,39.84374999999999,0)" xlink:href="#aC"/></g><path fill="#5e5e5e" d="M503-687l240-395h216L605-547 970 0H756L506-405 256 0H41l365-547-354-535h214" id="aD"/><g id="s"><use transform="matrix(0.008680555555555554,0,0,0.008680555555555554,0,0)" xlink:href="#aB"/><use transform="matrix(0.008680555555555554,0,0,0.008680555555555554,6.171874999999999,0)" xlink:href="#aj"/><use transform="matrix(0.008680555555555554,0,0,0.008680555555555554,10.48611111111111,0)" xlink:href="#aD"/><use transform="matrix(0.008680555555555554,0,0,0.008680555555555554,19.123263888888886,0)" xlink:href="#ag"/><use transform="matrix(0.008680555555555554,0,0,0.008680555555555554,28.541666666666668,0)" xlink:href="#af"/></g><path fill="#5e5e5e" d="M19 279c92 0 127-48 127-150v-1211h185V125c0 208-94 312-283 312-41 0-78-6-113-18V271c21 5 49 8 84 8zm216-1543c-68 0-107-42-108-105 0-61 42-107 108-107 68 0 110 44 110 107s-42 105-110 105" id="aE"/><g id="t"><use transform="matrix(0.008680555555555554,0,0,0.008680555555555554,0,0)" xlink:href="#au"/><use transform="matrix(0.008680555555555554,0,0,0.008680555555555554,10.138888888888888,0)" xlink:href="#an"/><use transform="matrix(0.008680555555555554,0,0,0.008680555555555554,20.11284722222222,0)" xlink:href="#aE"/><use transform="matrix(0.008680555555555554,0,0,0.008680555555555554,24.357638888888886,0)" xlink:href="#ag"/><use transform="matrix(0.008680555555555554,0,0,0.008680555555555554,33.776041666666664,0)" xlink:href="#as"/><use transform="matrix(0.008680555555555554,0,0,0.008680555555555554,43.081597222222214,0)" xlink:href="#ak"/></g><path fill="#5e5e5e" d="M973-380H363L226 0H28l556-1456h168L1309 0h-197zM421-538h495l-248-681" id="aF"/><g id="u"><use transform="matrix(0.008680555555555554,0,0,0.008680555555555554,0,0)" xlink:href="#aF"/><use transform="matrix(0.008680555555555554,0,0,0.008680555555555554,11.59722222222222,0)" xlink:href="#ap"/><use transform="matrix(0.008680555555555554,0,0,0.008680555555555554,15.91145833333333,0)" xlink:href="#as"/><use transform="matrix(0.008680555555555554,0,0,0.008680555555555554,25.217013888888886,0)" xlink:href="#au"/><use transform="matrix(0.008680555555555554,0,0,0.008680555555555554,35.35590277777777,0)" xlink:href="#ay"/><use transform="matrix(0.008680555555555554,0,0,0.008680555555555554,45.147569444444436,0)" xlink:href="#au"/><use transform="matrix(0.008680555555555554,0,0,0.008680555555555554,55.28645833333332,0)" xlink:href="#ap"/></g><g id="v"><use transform="matrix(0.008680555555555554,0,0,0.008680555555555554,0,0)" xlink:href="#aw"/><use transform="matrix(0.008680555555555554,0,0,0.008680555555555554,13.359374999999998,0)" xlink:href="#ad"/><use transform="matrix(0.008680555555555554,0,0,0.008680555555555554,23.029513888888886,0)" xlink:href="#aA"/></g><g id="w"><use transform="matrix(0.008680555555555554,0,0,0.008680555555555554,0,0)" xlink:href="#am"/><use transform="matrix(0.008680555555555554,0,0,0.008680555555555554,9.800347222222221,0)" xlink:href="#aA"/><use transform="matrix(0.008680555555555554,0,0,0.008680555555555554,18.967013888888886,0)" xlink:href="#ag"/><use transform="matrix(0.008680555555555554,0,0,0.008680555555555554,28.385416666666668,0)" xlink:href="#af"/></g><path fill="#5e5e5e" d="M1161-1018c0 201-122 330-278 388l342 618V0h-206L703-589H361V0H168v-1456h482c310-2 511 139 511 438zm-193 0c0-187-120-280-313-280H361v552h295c179 3 313-101 312-272" id="aG"/><g id="x"><use transform="matrix(0.008680555555555554,0,0,0.008680555555555554,0,0)" xlink:href="#aG"/><use transform="matrix(0.008680555555555554,0,0,0.008680555555555554,10.946180555555554,0)" xlink:href="#ad"/><use transform="matrix(0.008680555555555554,0,0,0.008680555555555554,20.616319444444443,0)" xlink:href="#ah"/></g><g id="y"><use transform="matrix(0.008680555555555554,0,0,0.008680555555555554,0,0)" xlink:href="#au"/><use transform="matrix(0.008680555555555554,0,0,0.008680555555555554,10.138888888888888,0)" xlink:href="#aB"/><use transform="matrix(0.008680555555555554,0,0,0.008680555555555554,16.310763888888886,0)" xlink:href="#aB"/><use transform="matrix(0.008680555555555554,0,0,0.008680555555555554,22.482638888888886,0)" xlink:href="#ai"/><use transform="matrix(0.008680555555555554,0,0,0.008680555555555554,27.387152777777775,0)" xlink:href="#ao"/><use transform="matrix(0.008680555555555554,0,0,0.008680555555555554,33.229166666666664,0)" xlink:href="#au"/><use transform="matrix(0.008680555555555554,0,0,0.008680555555555554,43.36805555555555,0)" xlink:href="#ad"/><use transform="matrix(0.008680555555555554,0,0,0.008680555555555554,53.038194444444436,0)" xlink:href="#af"/></g><path fill="#5e5e5e" d="M319-664C304-226 428 158 661 357l-38 113c-89-49-172-133-254-248C142-97 71-578 194-1025c67-244 240-513 429-618l38 122c-201 153-330 502-342 857" id="aH"/><path fill="#5e5e5e" d="M38 357C331 141 457-487 337-984c-53-219-157-429-299-546l39-113c190 106 362 378 431 621 75 268 76 597 0 868C440 88 266 365 77 470" id="aI"/><g id="z"><use transform="matrix(0.008680555555555554,0,0,0.008680555555555554,0,0)" xlink:href="#aH"/><use transform="matrix(0.008680555555555554,0,0,0.008680555555555554,6.0763888888888875,0)" xlink:href="#ao"/><use transform="matrix(0.008680555555555554,0,0,0.008680555555555554,12.092013888888886,0)" xlink:href="#aj"/><use transform="matrix(0.008680555555555554,0,0,0.008680555555555554,16.406249999999996,0)" xlink:href="#aC"/><use transform="matrix(0.008680555555555554,0,0,0.008680555555555554,26.38020833333333,0)" xlink:href="#ay"/><use transform="matrix(0.008680555555555554,0,0,0.008680555555555554,36.17187499999999,0)" xlink:href="#ak"/><use transform="matrix(0.008680555555555554,0,0,0.008680555555555554,41.97916666666666,0)" xlink:href="#aI"/></g><path fill="#5e5e5e" d="M631-137c179 0 314-70 314-231 0-71-25-127-75-166s-141-77-272-115c-165-47-285-106-360-175s-112-154-112-255c0-245 231-397 495-397 206 0 369 89 449 218 43 68 65 142 65 223H942c0-184-129-283-321-283-172 0-299 76-301 236 0 59 26 109 76 150s135 78 256 113c205 59 345 116 436 256 35 53 50 119 50 193-2 256-231 398-507 390C333 12 90-129 80-422h193c0 187 160 285 358 285" id="aJ"/><g id="A"><use transform="matrix(0.008680555555555554,0,0,0.008680555555555554,0,0)" xlink:href="#aJ"/><use transform="matrix(0.008680555555555554,0,0,0.008680555555555554,10.546874999999998,0)" xlink:href="#ah"/><use transform="matrix(0.008680555555555554,0,0,0.008680555555555554,20.355902777777775,0)" xlink:href="#au"/><use transform="matrix(0.008680555555555554,0,0,0.008680555555555554,30.494791666666664,0)" xlink:href="#aw"/></g><g id="B"><use transform="matrix(0.008680555555555554,0,0,0.008680555555555554,0,0)" xlink:href="#ad"/><use transform="matrix(0.008680555555555554,0,0,0.008680555555555554,9.670138888888888,0)" xlink:href="#ah"/><use transform="matrix(0.008680555555555554,0,0,0.008680555555555554,19.479166666666664,0)" xlink:href="#af"/></g><g id="C"><use transform="matrix(0.008680555555555554,0,0,0.008680555555555554,0,0)" xlink:href="#ao"/><use transform="matrix(0.008680555555555554,0,0,0.008680555555555554,5.668402777777777,0)" xlink:href="#ad"/><use transform="matrix(0.008680555555555554,0,0,0.008680555555555554,15.338541666666664,0)" xlink:href="#aj"/><use transform="matrix(0.008680555555555554,0,0,0.008680555555555554,19.652777777777775,0)" xlink:href="#ah"/></g><g id="D"><use transform="matrix(0.008680555555555554,0,0,0.008680555555555554,0,0)" xlink:href="#aw"/><use transform="matrix(0.008680555555555554,0,0,0.008680555555555554,13.359374999999998,0)" xlink:href="#ag"/><use transform="matrix(0.008680555555555554,0,0,0.008680555555555554,22.777777777777775,0)" xlink:href="#ad"/><use transform="matrix(0.008680555555555554,0,0,0.008680555555555554,32.447916666666664,0)" xlink:href="#ak"/><use transform="matrix(0.008680555555555554,0,0,0.008680555555555554,38.25520833333333,0)" xlink:href="#ay"/><use transform="matrix(0.008680555555555554,0,0,0.008680555555555554,48.04687499999999,0)" xlink:href="#ag"/><use transform="matrix(0.008680555555555554,0,0,0.008680555555555554,57.46527777777777,0)" xlink:href="#ao"/></g><path fill="#5e5e5e" d="M177 125H18l608-1581h158" id="aK"/><g id="E"><use transform="matrix(0.008680555555555554,0,0,0.008680555555555554,0,0)" xlink:href="#at"/><use transform="matrix(0.008680555555555554,0,0,0.008680555555555554,12.673611111111109,0)" xlink:href="#ag"/><use transform="matrix(0.008680555555555554,0,0,0.008680555555555554,22.092013888888886,0)" xlink:href="#ad"/><use transform="matrix(0.008680555555555554,0,0,0.008680555555555554,31.76215277777777,0)" xlink:href="#af"/><use transform="matrix(0.008680555555555554,0,0,0.008680555555555554,41.788194444444436,0)" xlink:href="#ai"/><use transform="matrix(0.008680555555555554,0,0,0.008680555555555554,46.69270833333332,0)" xlink:href="#au"/><use transform="matrix(0.008680555555555554,0,0,0.008680555555555554,56.83159722222221,0)" xlink:href="#ah"/><use transform="matrix(0.008680555555555554,0,0,0.008680555555555554,66.64062499999999,0)" xlink:href="#aK"/><use transform="matrix(0.008680555555555554,0,0,0.008680555555555554,73.96701388888887,0)" xlink:href="#aF"/><use transform="matrix(0.008680555555555554,0,0,0.008680555555555554,85.56423611111109,0)" xlink:href="#ah"/><use transform="matrix(0.008680555555555554,0,0,0.008680555555555554,95.37326388888886,0)" xlink:href="#aC"/><use transform="matrix(0.008680555555555554,0,0,0.008680555555555554,105.34722222222219,0)" xlink:href="#am"/><use transform="matrix(0.008680555555555554,0,0,0.008680555555555554,115.1475694444444,0)" xlink:href="#ap"/><use transform="matrix(0.008680555555555554,0,0,0.008680555555555554,119.46180555555551,0)" xlink:href="#ad"/><use transform="matrix(0.008680555555555554,0,0,0.008680555555555554,129.1319444444444,0)" xlink:href="#ao"/></g><g id="F"><use transform="matrix(0.008680555555555554,0,0,0.008680555555555554,0,0)" xlink:href="#as"/><use transform="matrix(0.008680555555555554,0,0,0.008680555555555554,9.305555555555554,0)" xlink:href="#au"/><use transform="matrix(0.008680555555555554,0,0,0.008680555555555554,19.444444444444443,0)" xlink:href="#ap"/><use transform="matrix(0.008680555555555554,0,0,0.008680555555555554,23.758680555555554,0)" xlink:href="#ap"/><use transform="matrix(0.008680555555555554,0,0,0.008680555555555554,28.072916666666668,0)" xlink:href="#aj"/><use transform="matrix(0.008680555555555554,0,0,0.008680555555555554,32.38715277777777,0)" xlink:href="#aA"/><use transform="matrix(0.008680555555555554,0,0,0.008680555555555554,41.553819444444436,0)" xlink:href="#aj"/><use transform="matrix(0.008680555555555554,0,0,0.008680555555555554,45.86805555555554,0)" xlink:href="#au"/><use transform="matrix(0.008680555555555554,0,0,0.008680555555555554,56.00694444444443,0)" xlink:href="#ah"/></g><path fill="#5e5e5e" d="M1288 0h-193L362-1122V0H169v-1456h193l735 1127v-1127h191V0" id="aL"/><g id="G"><use transform="matrix(0.008680555555555554,0,0,0.008680555555555554,0,0)" xlink:href="#aL"/><use transform="matrix(0.008680555555555554,0,0,0.008680555555555554,12.673611111111109,0)" xlink:href="#au"/><use transform="matrix(0.008680555555555554,0,0,0.008680555555555554,22.812499999999996,0)" xlink:href="#ak"/></g><g id="H"><use transform="matrix(0.008680555555555554,0,0,0.008680555555555554,0,0)" xlink:href="#ad"/><use transform="matrix(0.008680555555555554,0,0,0.008680555555555554,9.670138888888888,0)" xlink:href="#ak"/></g><g id="I"><use transform="matrix(0.008680555555555554,0,0,0.008680555555555554,0,0)" xlink:href="#ad"/><use transform="matrix(0.008680555555555554,0,0,0.008680555555555554,9.670138888888888,0)" xlink:href="#ah"/></g><g id="J"><use transform="matrix(0.008680555555555554,0,0,0.008680555555555554,0,0)" xlink:href="#aj"/><use transform="matrix(0.008680555555555554,0,0,0.008680555555555554,4.314236111111111,0)" xlink:href="#ah"/><use transform="matrix(0.008680555555555554,0,0,0.008680555555555554,14.123263888888888,0)" xlink:href="#ak"/><use transform="matrix(0.008680555555555554,0,0,0.008680555555555554,19.930555555555554,0)" xlink:href="#ag"/><use transform="matrix(0.008680555555555554,0,0,0.008680555555555554,29.34895833333333,0)" xlink:href="#ao"/><use transform="matrix(0.008680555555555554,0,0,0.008680555555555554,35.36458333333333,0)" xlink:href="#aA"/><use transform="matrix(0.008680555555555554,0,0,0.008680555555555554,44.53124999999999,0)" xlink:href="#ag"/><use transform="matrix(0.008680555555555554,0,0,0.008680555555555554,53.94965277777777,0)" xlink:href="#as"/><use transform="matrix(0.008680555555555554,0,0,0.008680555555555554,63.25520833333333,0)" xlink:href="#ak"/><use transform="matrix(0.008680555555555554,0,0,0.008680555555555554,69.0625,0)" xlink:href="#aj"/><use transform="matrix(0.008680555555555554,0,0,0.008680555555555554,73.37673611111111,0)" xlink:href="#au"/><use transform="matrix(0.008680555555555554,0,0,0.008680555555555554,83.515625,0)" xlink:href="#ah"/></g></defs></g></svg>